<svg width="48" height="48" viewBox="0 0 48 48" fill="none" xmlns="http://www.w3.org/2000/svg">
<path d="M8 0C3.582 0 0 3.582 0 8V40C0 44.418 3.582 48 8 48H40C44.418 48 48 44.418 48 40V8C48 3.582 44.418 0 40 0H8ZM28 15H38V17.5703H28V15ZM9.14648 15.0019H17.7598C18.6948 15.0019 23.7519 14.9418 23.7519 19.5918C23.7519 22.0638 22.0654 22.8977 21.3164 23.2637C22.4394 23.6317 24.498 24.6735 24.498 27.8555C24.499 32.7875 18.8828 32.999 18.1348 33H9.14648V15.0019ZM12.9863 18.1211V22.3457H17.1074C17.6684 22.3457 19.5391 22.0296 19.5391 20.1426C19.5391 18.2556 17.1054 18.1211 16.7324 18.1211L12.9863 18.1211ZM33.2988 19C38.2578 19 39.6037 22.87 39.8027 23.793C39.9997 24.716 40 25.5327 40 26.6387H29.9453C29.9453 27.7447 30.5331 30.2402 33.4941 30.2402C34.2831 30.2402 34.8758 30.0535 35.4668 29.6855C36.0578 29.3155 36.2542 28.9471 36.4512 28.5781H39.8027C39.2118 30.0521 38.4233 31.1595 37.2383 31.8965C36.0563 32.6335 34.6756 33 33.0996 33C32.1136 33 31.1257 32.8153 30.1407 32.4453C29.3517 32.0753 28.5646 31.5266 27.9746 30.9726C27.3826 30.4226 26.9878 29.6847 26.5938 28.7637C26.1988 28.0277 26 26.92 26 26C26 25.081 26.3688 19 33.2988 19ZM33.1152 21.4629C30.2202 21.4629 29.7461 24.2535 29.7461 24.4375H36.0879C35.8899 23.5095 35.0572 21.4629 33.1152 21.4629ZM12.9453 24.9199V29.8769H17.2539C17.6279 29.8769 20.248 29.7542 20.248 27.4902C20.249 25.2232 18.1899 24.9199 17.2539 24.9199H12.9453Z" fill="white"/>
</svg>
