<svg width="48" height="48" viewBox="0 0 48 48" fill="none" xmlns="http://www.w3.org/2000/svg">
<path d="M14.1136 0C6.36648 0 0 6.35795 0 14.1136V33.8864C0 41.6335 6.35795 48 14.1136 48H33.8864C41.6335 48 48 41.6421 48 33.8864V14.1136C48 6.36648 41.6421 0 33.8864 0H14.1136ZM14.1136 4.36364H33.8864C39.2813 4.36364 43.6364 8.71874 43.6364 14.1136V33.8864C43.6364 39.2813 39.2813 43.6364 33.8864 43.6364H14.1136C8.71874 43.6364 4.36364 39.2813 4.36364 33.8864V14.1136C4.36364 8.71874 8.71874 4.36364 14.1136 4.36364ZM36.8864 9.13636C35.7869 9.13636 34.9091 10.0142 34.9091 11.1136C34.9091 12.2131 35.7869 13.0909 36.8864 13.0909C37.9858 13.0909 38.8636 12.2131 38.8636 11.1136C38.8636 10.0142 37.9858 9.13636 36.8864 9.13636ZM24 10.9091C16.7983 10.9091 10.9091 16.7983 10.9091 24C10.9091 31.2017 16.7983 37.0909 24 37.0909C31.2017 37.0909 37.0909 31.2017 37.0909 24C37.0909 16.7983 31.2017 10.9091 24 10.9091ZM24 15.2727C28.8494 15.2727 32.7273 19.1506 32.7273 24C32.7273 28.8494 28.8494 32.7273 24 32.7273C19.1506 32.7273 15.2727 28.8494 15.2727 24C15.2727 19.1506 19.1506 15.2727 24 15.2727Z" fill="white"/>
</svg>
