<svg width="48" height="48" viewBox="0 0 48 48" fill="none" xmlns="http://www.w3.org/2000/svg">
<path d="M24 0C10.7455 0 0 10.7455 0 24C0 37.2545 10.7455 48 24 48C37.2545 48 48 37.2545 48 24C48 10.7455 37.2545 0 24 0ZM24 4.36364C34.8447 4.36364 43.6364 13.1553 43.6364 24C43.6364 34.8447 34.8447 43.6364 24 43.6364C13.1553 43.6364 4.36364 34.8447 4.36364 24C4.36364 13.1553 13.1553 4.36364 24 4.36364ZM33.8629 14.5504C33.3088 14.4865 32.6126 14.6384 31.8345 14.919C30.4131 15.4318 12.2441 23.1469 11.1946 23.593C10.2008 24.0163 9.25892 24.4776 9.25782 25.1442C9.25782 25.6133 9.53599 25.8782 10.304 26.152C11.1025 26.4378 13.1163 27.0466 14.3054 27.375C15.4509 27.6903 16.7535 27.4155 17.4844 26.9616C18.2578 26.4806 27.1949 20.5009 27.8352 19.9773C28.4756 19.4536 28.9874 20.1258 28.4638 20.6506C27.9401 21.1753 21.8052 27.1256 20.9957 27.9503C20.0139 28.9517 20.7118 29.9892 21.3707 30.4048C22.1224 30.8794 27.5338 34.5077 28.3487 35.0902C29.1636 35.6727 29.9887 35.9361 30.7457 35.9361C31.5028 35.9361 31.9013 34.9383 32.2777 33.782C32.7195 32.4281 34.7892 18.9295 35.0433 16.2699C35.1208 15.4637 34.8665 14.9278 34.3679 14.6889C34.2171 14.6167 34.0476 14.5717 33.8629 14.5504Z" fill="white"/>
</svg>
