<svg width="48" height="48" viewBox="0 0 48 48" fill="none" xmlns="http://www.w3.org/2000/svg">
<path d="M24 0C10.7666 0 0 10.7666 0 24C0 37.2334 10.7666 48 24 48C37.2344 48 48 37.2334 48 24C48 10.7666 37.2344 0 24 0ZM34.4066 28.7322C36.7409 30.8045 37.2261 31.5443 37.3054 31.6706C38.2727 33.2045 36.2327 33.3913 36.2327 33.3913H31.9336C31.9336 33.3913 30.887 33.4028 29.9927 32.8101C28.535 31.8553 27.0083 30.0042 25.9357 30.3256C25.0351 30.5948 25.0435 31.8115 25.0435 32.8518C25.0435 33.2243 24.7231 33.3913 24 33.3913C23.2769 33.3913 22.9763 33.3913 22.656 33.3913C20.3009 33.3913 17.7454 32.5983 15.1962 29.9343C11.5899 26.1683 8.42713 18.5823 8.42713 18.5823C8.42713 18.5823 8.24035 18.2003 8.44383 17.9677C8.67443 17.7068 9.30156 17.7402 9.30156 17.7402L13.4703 17.7391C13.4703 17.7391 13.8626 17.8132 14.1443 18.0115C14.377 18.1743 14.5064 18.4852 14.5064 18.4852C14.5064 18.4852 15.2066 20.7976 16.0988 22.272C17.8414 25.1499 18.6522 25.223 19.2438 24.913C20.1078 24.4643 19.8261 21.4049 19.8261 21.4049C19.8261 21.4049 19.8647 20.0911 19.4139 19.5057C19.0664 19.0529 18.4017 18.8118 18.1117 18.7743C17.8769 18.744 18.2692 18.3329 18.769 18.0981C19.4369 17.8007 20.3457 17.7245 21.913 17.7391C23.1329 17.7506 23.4845 17.8237 23.9603 17.9332C25.3993 18.265 25.0435 19.1405 25.0435 22.2146C25.0435 23.1997 24.9078 24.5843 25.6508 25.0435C25.9711 25.2417 27.0689 25.4838 29.0223 22.3117C29.9499 20.807 30.6877 18.311 30.6877 18.311C30.6877 18.311 30.84 18.0365 31.0769 17.9009C31.319 17.7621 31.3117 17.7652 31.6435 17.7652C31.9753 17.7652 35.303 17.7391 36.0334 17.7391C36.7628 17.7391 37.4473 17.7308 37.5652 18.1586C37.7343 18.7732 37.0268 20.879 35.2341 23.1642C32.2883 26.9144 31.9617 26.5638 34.4066 28.7322Z" fill="white"/>
</svg>
