<svg width="435" height="321" viewBox="0 0 435 321" fill="none" xmlns="http://www.w3.org/2000/svg">
<path d="M47.9844 195.938C47.9842 195.459 47.9831 192.648 47.9832 193.092C47.9873 203.298 48.5974 213.468 49.2151 223.654C49.6199 230.329 49.67 237.376 50.443 244.052C50.7738 246.909 50.8798 238.316 51.0495 235.445C51.7993 222.764 53.6483 207.785 51.0336 195.259C48.4103 182.692 51.7723 220.925 52.3364 233.75C52.9465 247.619 52.5873 289.157 54.1148 275.359C57.0035 249.267 52.8535 170.362 52.8639 196.614C52.875 224.766 49.5497 308.723 54.727 281.051C58.4171 261.327 56.0732 239.149 54.0249 219.383C53.1321 210.768 49.9584 185.202 49.2711 193.837C48.1362 208.094 49.2148 222.854 49.2205 237.14C49.2255 249.915 46.8064 265.948 50.4566 278.478C53.6321 289.377 52.3133 255.808 52.0696 244.458C51.6941 226.97 52.5521 206.465 48.2528 189.297C47.8248 187.588 48.1902 192.822 48.2549 194.583C48.7731 208.678 49.3557 222.769 49.7625 236.869C50.1293 249.581 50.0204 262.399 50.9974 275.089C51.2422 278.268 51.2831 285.293 53.4423 288.235C55.7369 291.361 54.9659 280.591 55.0641 276.714C55.4346 262.086 55.1576 247.421 54.6401 232.801C54.2511 221.81 55.4777 205.74 51.1013 195.124C50.6058 193.922 50.5602 197.686 50.5607 198.987C50.5661 212.462 51.2232 225.992 51.9321 239.443C52.3614 247.589 53.6408 271.873 54.5846 263.77C56.3044 249.007 55.2858 233.526 55.3122 218.705C55.3287 209.489 55.3049 200.272 55.3013 191.056C55.3007 189.571 55.8888 182.217 54.3489 181.704C53.127 181.298 53.4059 186.492 52.9272 185.297C51.9803 182.932 52.0644 182.122 49.4693 180.825C48.6713 180.427 54.3924 182.129 54.8228 180.62C55.1132 179.602 48.0267 177.41 48.4529 181.232C48.573 182.309 49.3858 182.81 50.4187 182.655C51.4296 182.503 53.0432 179.571 52.5864 180.485C51.1908 183.279 52.3662 195.786 52.5924 195.53C55.2537 192.519 54.0332 182.741 52.863 194.31C51.4321 208.453 56.5823 198.615 54.217 191.056C51.6284 182.784 49.8469 203.454 49.9532 205.018C50.9022 218.981 52.7304 201.737 52.7287 197.495C52.7228 182.695 51.4665 227.085 51.7297 241.883C51.8764 250.125 53.4788 258.003 54.0434 266.142C55.6493 289.294 54.1127 269.914 54.1176 282.271C54.1194 286.908 48.7523 284.765 45.1734 285.053C38.027 285.628 53.2339 286.707 55.8133 286.133C57.8111 285.688 47.7348 284.984 49.7816 284.983C52.5826 284.982 55.3836 284.981 58.1847 284.98C61.5558 284.979 57.3724 285.136 56.558 284.439C51.3876 280.01 52.1114 266.727 51.805 260.722C51.7228 259.113 51.6638 246.508 51.6674 255.572C51.6707 263.838 50.9053 271.995 50.5251 280.239C50.3108 284.887 50.4593 285.199 50.4574 280.375C50.4546 273.192 50.5087 266.007 50.4489 258.825C50.3474 246.642 49.2852 258.973 49.2309 263.569C49.1564 269.888 48.0162 276.294 48.0186 282.545C48.0194 284.568 49.2267 277.319 49.2362 276.852C49.4188 267.822 58.3635 230.722 47.1145 224.062C21.189 208.712 -4.16067 250.226 13.5879 269.953C19.6443 276.685 28.1635 280.464 36.9723 281.736C37.4201 281.8 54.5055 282.02 53.168 280.238C52.5069 279.358 44.904 281.223 44.0876 281.258C36.0852 281.61 27.3967 281.001 20.5028 276.524C13.8963 272.234 19.9546 274.827 23.2132 275.778C27.254 276.957 50.825 282.834 53.0307 275.766C53.5599 274.07 49.4808 276.068 47.7452 276.446C43.6096 277.346 39.8692 277.544 35.6827 276.586C30.4633 275.392 16.1885 267.858 21.3132 269.408C28.5099 271.586 35.138 275.228 42.5949 276.651C45.7638 277.255 55.4644 276.732 46.1865 276.378C29.3872 275.739 15.3077 269.024 16.3587 250.503C16.4489 248.914 18.8628 238.957 18.727 241.625C18.358 248.877 15.9718 255.925 15.3472 263.176C15.1164 265.856 16.8817 271.123 16.0262 266.429C14.263 256.753 12.7245 247.867 18.116 238.779C25.7966 225.831 16.7861 240.468 15.2049 246.099C12.2688 256.554 11.3223 271.046 23.6198 275.913C24.7684 276.368 29.0913 278.338 27.0083 276.183C22.4202 271.435 17.5523 266.158 14.3973 260.33C8.72224 249.847 11.7599 234.524 21.8389 227.799C26.1086 224.95 30.657 224.405 35.5261 223.389C38.5248 222.763 27.8896 228.659 26.2447 230.237C20.3184 235.921 16.9093 243.619 16.1559 251.791C15.7091 256.637 16.3591 261.4 18.8721 265.614C19.2435 266.237 23.238 272.036 22.6676 266.968C21.1689 253.653 15.9611 243.358 29.7025 234.437C32.1162 232.87 45.6043 229.957 42.7122 230.366C39.0697 230.88 28.106 232.908 28.3465 232.879C31.0134 232.553 54.039 230.374 42.9831 230.027C41.2637 229.973 32.5212 230.669 31.1913 229.151C28.7941 226.413 38.4654 228.939 42.1016 228.807C51.7118 228.46 30.6537 227.367 39.2543 225.895C47.9207 224.411 39.2834 226.122 37.0173 224.269C36.7289 224.033 40.7584 223.954 37.3558 223.388C35.5717 223.091 30.2748 223.046 32.0018 222.509C33.2316 222.127 36.8509 221.747 35.8646 222.575C29.8329 227.638 23.9547 231.647 19.4034 238.372C15.8814 243.575 16.4469 248.669 13.7847 253.554C12.0927 256.659 13.3722 246.274 14.6615 242.982C16.9024 237.259 31.4118 225.488 26.0407 228.475C12.8137 235.83 4.4209 253.394 12.706 267.514C15.075 271.552 19.7065 275.317 24.2978 276.59C27.0692 277.359 20.9781 271.876 19.619 269.341C15.9493 262.498 15.1894 255.278 16.832 247.725C17.4963 244.67 21.4134 236.11 20.5558 239.117C17.8794 248.498 14.464 257.936 22.2607 266.426C28.8728 273.626 60.1766 275.918 50.5904 274.005C46.7525 273.239 41.6366 273.594 37.8499 273.4C35.7263 273.291 33.601 273.211 31.4797 273.064C28.0842 272.828 28.5156 272.742 31.615 272.521C36.7912 272.153 42.0425 272.21 47.2011 271.634C50.7517 271.238 40.0422 271.696 36.4941 272.113C25.2012 273.441 34.0668 274.978 39.5448 275.161C49.8806 275.508 29.1175 274.928 26.8047 275.37C19.9536 276.677 40.6546 278.116 47.6101 277.598C55.5448 277.007 31.7322 275.581 24.1609 273.134C15.7125 270.405 9.99155 266.254 6.80645 257.894C5.04083 253.259 5.12524 238.162 5.03866 243.121C4.94548 248.457 5.98341 253.667 8.50084 258.435C10.4199 262.07 17.9997 270.795 17.6527 266.699C17.0151 259.175 11.8183 253.465 12.0195 245.287C12.17 239.171 14.6958 233.226 19.1286 229.02C20.5827 227.64 24.2154 225.358 26.4461 225.358C26.773 225.357 21.5647 229.268 21.0941 229.629C13.3298 235.587 6.59818 248.309 11.7535 258.095C14.2455 262.825 28.3898 271.368 24.8363 267.374C23.0735 265.392 18.718 259.998 22.393 258.158" stroke="white" stroke-width="3" stroke-linecap="round"/>
<path d="M73.6225 250.819C81.5677 250.816 92.0356 254.297 98.9669 249.589C104.515 245.821 104.725 231.222 99.839 227.09C94.8856 222.902 85.53 222.581 80.2539 226.149C70.2317 232.927 65.7284 249.725 68.2054 261.732C70.0467 270.657 77.9385 281.539 87.6628 282.461C92.2021 282.891 97.8186 283.083 102.233 281.845C103.337 281.536 110.418 277.244 107.246 277.913C99.6663 279.512 91.2035 281.577 83.9337 277.651C74.839 272.74 69.7763 258.205 70.1654 248.381C70.4829 240.364 75.6805 233.031 81.2032 227.504C81.9048 226.802 79.0528 233.761 79.0371 233.808C76.1415 242.506 74.4453 252.197 75.1175 261.39C75.3557 264.647 78.9644 274.902 77.0163 264.507C74.7347 252.332 73.7757 232.214 84.5899 223.301C84.7637 223.158 89.0358 220.244 85.945 222.623C80.4725 226.836 76.129 232.502 73.2111 238.757C69.6338 246.425 67.7406 255.109 68.7483 263.561C69.7817 272.23 69.5118 260.365 69.4919 258.817C69.3856 250.574 70.5352 243.048 75.0397 235.978C77.1168 232.718 85.3676 224.528 83.1685 227.707C73.7569 241.313 65.3021 262.489 78.3766 277.247C78.7841 277.707 80.2489 278.812 79.868 278.33C78.4687 276.559 78.2195 276.93 76.7492 274.537C72.4046 267.465 71.6177 259.305 72.945 251.226C73.552 247.532 76.7343 236.909 76.7358 240.653C76.7387 248.033 72.7209 254.146 74.3046 262.136C75.8038 269.699 80.5298 275.223 87.3902 278.463C87.5312 278.529 95.069 281.256 93.761 280.358C89.2349 277.249 84.824 274.186 80.7458 270.469C79.8442 269.647 72.9747 260.224 75.9326 266.134C78.6446 271.552 81.9473 276.912 87.5939 279.683C88.3821 280.069 99.1517 282.759 91.389 279.952C86.12 278.047 79.6793 276.506 74.9867 273.317C69.7308 269.746 87.4059 276.724 93.7595 276.631C93.9896 276.627 102.619 274.38 101.077 274.188C97.6006 273.755 93.2281 275.381 89.9645 276.361C80.4539 279.218 109.184 275.697 101.417 276.966C100.41 277.131 89.2092 278.551 89.6272 280.359C90.2305 282.969 99.0712 282.403 100.742 282.253C108.358 281.566 85.2931 280.459 94.6426 281.916C99.9393 282.742 112.332 281.77 99.0473 281.372C91.7906 281.155 84.1383 281.615 77.4283 278.263C71.4656 275.285 65.7053 270.283 63.5982 263.97C61.578 257.917 64.7985 249.329 69.8932 245.603C74.4267 242.287 71.6067 249.37 71.1152 250.956C70.2296 253.813 67.156 262.121 68.8145 259.631C70.5529 257.021 73.7317 256.796 76.742 256.51C78.4761 256.346 97.697 257.113 89.8889 256.641C88.8364 256.577 73.3417 255.324 82.841 256.237C84.0422 256.353 102.054 258.561 95.4455 255.825C92.9082 254.775 82.4823 251.493 82.9747 251.629C87.093 252.761 97.4919 257.747 95.5803 253.928C92.9223 248.617 82.6882 252.724 78.7739 253.528C71.4886 255.024 84.0027 255.87 85.1449 255.965C93.8316 256.692 84.8686 255.919 92.7351 256.64C94.1315 256.768 97.5643 258.095 96.9368 256.841C95.6203 254.211 81.0377 253.517 78.4349 253.325C77.5771 253.262 79.8621 254.321 80.6718 254.611C85.9518 256.504 91.0238 257.946 96.6662 258.129C101.788 258.295 87.1405 255.693 85.0093 255.694C79.4912 255.696 96.6264 260.012 101.477 257.382C109.987 252.768 110.05 236.764 101.806 232.647C101.317 232.402 98.0119 230.338 98.8245 232.309C100.704 236.868 100.853 241.452 100.185 246.336C99.765 249.414 96.5945 258.206 97.8172 255.35C100.564 248.934 103.348 241.224 100.858 234.273C99.8334 231.412 96.9885 227.167 93.9428 226.008C90.7446 224.792 98.8746 230.807 100.858 233.596C104.457 238.655 106.529 245.384 103.847 251.349C101.097 257.467 101.485 251.153 102.423 248.436C106.097 237.786 106.9 229.228 95.3654 224.72C92.0046 223.407 98.5782 228.178 98.6874 228.311C103.296 233.926 106.674 242.609 103.033 249.588C102.854 249.93 97.1835 257.127 97.8843 253.791C98.9046 248.935 101.178 244.681 101.131 239.559C101.044 230.042 91.5961 223.473 82.6942 227.775C71.2447 233.308 87.5664 231.36 92.6576 231.972C94.5245 232.197 99.9471 233.748 98.0796 233.529C91.5367 232.762 85.2823 231.466 78.6295 231.3C78.5728 231.299 96.5645 228.547 99.9088 232.241C100.169 232.528 81.3808 228.86 85.2698 228.858C90.0181 228.856 94.8341 228.901 99.2983 230.75C100.768 231.359 102.715 233.952 102.958 231.63C103.29 228.46 104.375 225.61 102.89 230.071" stroke="white" stroke-width="3" stroke-linecap="round"/>
<path d="M151.679 223.953C154.644 223.581 141.777 220.422 140.089 220.501C132.205 220.871 124.652 230.822 126.34 238.871C130.372 258.097 154.311 243.663 161.925 256.341C165.406 262.139 162.495 272.108 156.985 275.182C147.055 280.722 141.975 275.343 134.01 270.922C131.44 269.495 131.106 271.126 132.724 273.295C139.089 281.83 150.655 281.527 158.205 274.775C162.105 271.287 144.974 273.749 142.211 273.426C137.473 272.873 133.395 271.317 128.927 269.908C125.952 268.969 133.96 273.618 136.655 275.19C140.666 277.531 144.965 279.563 149.6 280.268C152.27 280.674 160.177 279.77 157.596 278.977C147.861 275.986 137.595 282.051 128.387 274.787C124.8 271.958 129.323 278.486 130.286 279.53C136.968 286.772 154.023 283.011 159.967 276.401C165.828 269.885 165.019 263.266 159.417 256.952C156.656 253.84 153.393 251.097 149.656 249.231C147.724 248.266 152.768 252.263 153.995 254.04C158.165 260.082 158.593 267.35 155.155 273.828C154.353 275.338 156.632 264.979 156.506 263.12C156.159 258.014 153.722 253.515 149.182 251.128C148.056 250.536 154.342 256.93 154.945 257.97C157.482 262.343 158.666 266.871 156.577 271.659C154.689 275.987 154.064 274.344 155.899 270.71C160.152 262.291 161.151 255.735 151.283 251.331C146.323 249.117 140.636 248.742 135.559 246.864C129.513 244.627 127.205 236.853 132.097 231.957C136.712 227.339 143.376 228.763 148.835 230.866C151.76 231.993 159.848 236.67 156.834 235.81C149.884 233.827 145.54 228.26 137.449 227.685C136.953 227.65 136.455 227.651 135.958 227.618C134.831 227.544 138.218 227.59 139.347 227.617C145.364 227.761 154.088 227.25 159.272 230.997C159.998 231.523 129.413 223.643 143.277 226.667C147.443 227.575 151.908 228.419 155.68 230.524C158.445 232.068 149.358 229.506 146.463 228.224C140.804 225.72 136.324 222.809 145.919 224.361C146.85 224.512 160.021 230.297 156.629 230.524C152.558 230.797 132.064 221.782 147.343 226.665C148.363 226.991 157.437 230.635 155.883 229.914C150.511 227.423 145.492 224.23 140.158 221.653C134.203 218.777 141.172 221.092 142.868 221.652C147.109 223.052 159.215 228.742 154.933 227.475C147.412 225.25 136.887 212.35 128.772 220.302C119.751 229.143 128.618 240.459 137.659 244.424C149.22 249.494 130.808 240.204 129.05 236.837C125.426 229.898 132.3 221.804 139.481 223.28C140.819 223.555 148.696 224.787 144.157 225.243C136.824 225.979 131.852 231.403 130.541 238.531C129.129 246.215 135.775 249.372 141.864 251.877C146.946 253.967 147.857 253.53 143.625 250.588C139.398 247.65 129.272 235.937 135.146 230.058C135.962 229.242 138.797 228.925 138.737 228.972C135.978 231.182 133.617 236.501 132.914 239.885C131.686 245.789 138.546 249.594 143.422 250.521C146.392 251.085 154.96 253.562 152.368 252.008C146.165 248.289 139.306 245.22 132.982 241.579C127.323 238.321 142.425 246.412 143.963 247.132C148.673 249.336 170.673 259.98 152.099 259.124C148.426 258.954 129.816 251.699 141.119 253.503C146.638 254.384 151.739 256.768 156.03 260.342C156.955 261.111 158.739 264.174 157.726 263.526C155.973 262.405 138.843 247.058 137.864 248.625C137.531 249.159 147.875 254.889 148.032 254.991C152.33 257.778 157.575 261.166 159.692 266.101C159.878 266.535 161.002 273.847 159.288 273.42C158.863 273.313 158.762 267.356 160.236 270.302" stroke="white" stroke-width="3" stroke-linecap="round"/>
<path d="M177.297 228.822C177.298 231.105 177.284 233.382 177.232 235.666C177.085 242.103 176.898 247.629 176.765 254.167C176.687 257.984 174.139 268.32 176.837 265.62C178.873 263.583 178.102 253.382 178.254 250.642C178.578 244.819 178.521 238.988 178.519 233.158C178.512 217.014 174.604 265.497 176.369 281.545C178.289 299 180.901 246.458 179.466 228.956C178.794 220.772 178.515 225.141 178.517 230.448C178.523 243.64 178.528 256.832 178.533 270.024C178.534 273.118 176.919 280.276 181.519 281.001C183.395 281.296 190.328 280.587 189.515 277.948C185.569 265.144 187.127 249.44 187.058 236.272C187.039 232.592 187.336 217.723 186.988 230.58C186.618 244.3 183.146 260.846 185.854 274.358C186.636 278.261 186.299 266.408 186.459 262.431C186.908 251.27 187.529 239.892 186.378 228.75C186.189 226.924 185.686 222.043 184.614 223.533C180.519 229.225 182.725 246.04 182.728 252.132C182.729 255.481 180.789 276.434 184.636 279.373C184.71 279.43 185.579 258.447 185.576 258.365C185.292 249.055 184.972 239.58 183.397 230.378C181.953 221.94 180.765 227.814 180.348 232.141C179.419 241.777 179.035 251.536 179.072 261.214C179.078 262.9 178.231 281.669 181.927 282.763C184.886 283.638 184.213 233.88 183.464 229.023C183.09 226.601 182.326 221.953 181.634 227.465C180.079 239.853 180.151 252.589 181.242 265.008C181.615 269.25 181.785 281.098 184.025 277.476C189.274 268.99 185.718 249.099 185.027 240C184.767 236.58 184.433 233.162 183.939 229.768C183.819 228.948 183.312 226.576 183.192 227.396C182.855 229.699 183.148 232.052 183.263 234.376C183.326 235.653 184.227 251.738 185.304 254.841C186.785 259.109 185.88 245.784 185.434 241.288C185.1 237.921 184.671 234.546 183.871 231.259C182.794 226.828 181.482 225.481 180.822 230.718C179.249 243.193 181.261 256.859 182.734 269.277C183.352 274.477 184.465 277.758 185.175 270.428C186.113 260.734 185.664 250.951 184.621 241.288C184.231 237.671 184.253 223.543 179.666 222.112C172.669 219.928 195.889 228.27 180.48 222.247C173.585 219.552 197.069 226.142 181.563 220.281C172.042 216.683 175.299 223.093 175.807 231.398C175.915 233.161 175.51 248.557 178.522 241.019" stroke="white" stroke-width="3" stroke-linecap="round"/>
<path d="M173.625 195.888C173.627 200.838 177.054 209.561 183.117 209.031C188.22 208.586 190.73 202.813 188.738 198.39C180.346 179.762 168.285 209.084 179.052 211.473C185.829 212.976 188.028 203.528 186.502 198.865C183.456 189.562 175.6 199.618 176.339 205.51C177.331 213.421 185.534 209.36 187.452 204.422C189.651 198.762 181.073 195.837 179.049 202.256C177.169 208.217 181.895 209.858 183.115 204.152C185.334 193.776 179.219 212.15 183.25 203.271C184.879 199.685 182.654 202.828 182.709 204.83C182.791 207.834 185.554 202.772 185.554 201.576C185.553 198.402 182.591 201.911 184.2 204.287C185.854 206.731 190.022 196.165 183.654 195.342C178.752 194.709 180.82 204.124 183.455 205.643C187.723 208.103 188.494 201.261 186.908 198.865C183.239 193.321 178.724 198.946 179.659 203.611C180.958 210.093 189.656 209.164 188.943 202.591C188.306 196.723 180.72 196.361 178.913 201.85C177.69 205.561 183.193 215.019 186.302 209.572C187.416 207.622 179.493 194.206 185.827 206.862" stroke="white" stroke-width="3" stroke-linecap="round"/>
<path d="M246.828 233.673C246.825 225.61 232.003 220.556 226.088 223.517C215.566 228.782 210.899 252.892 212.957 264.182C215.312 277.108 225.515 282.313 237.493 275.828C251.048 268.491 251.626 253.884 249.203 240.585C247.715 232.42 248.057 257.157 248.061 265.456C248.065 276.13 245.301 285.521 242.516 295.75C239.975 305.079 237.308 312.732 227.751 316.967C219.645 320.559 209.816 319.785 201.728 316.367C196.184 314.024 207.039 317.824 207.15 317.856C216.044 320.393 228.485 320.018 233.576 310.391C234.138 309.33 231.318 311.205 230.188 311.612C225.841 313.182 222.248 314.328 217.585 315.006C212.829 315.697 201.623 317.015 197.254 313.523C193.302 310.363 207.374 313.42 212.434 313.381C219.122 313.331 239.004 310.26 232.357 311.002C227.66 311.525 223.184 313.538 218.398 314.057C213.089 314.632 209.281 314.528 204.031 314.198C202.268 314.087 197.641 312.414 198.745 313.793C200.273 315.702 209.916 316.764 211.487 317.041C215.766 317.797 228.751 318.743 224.498 317.849C215.97 316.057 190.155 312.09 198.61 314.2C217.033 318.798 231.388 319.968 241.434 301.985C243.682 297.96 244.708 293.57 245.698 289.107C245.997 287.762 250.518 267.532 247.523 277.654C246.899 279.765 239.929 302.795 244.341 284.974C247.18 273.508 250.445 262.181 252.189 250.478C253.461 241.937 254.304 233.364 254.144 224.725C253.906 211.937 250.378 250.053 249.483 262.812C248.809 272.414 249.523 263.065 249.55 262.541C249.961 254.686 250.395 246.825 250.49 238.958C250.539 234.909 251.196 239.123 248.727 236.79C245.447 233.69 233.792 226.724 237.204 229.679C242.037 233.864 257.9 244.636 252.388 241.397C244.913 237.003 241.881 228.517 232.594 226.089C225.758 224.302 233.997 227.404 235.102 227.715C240.509 229.233 246.222 230.613 250.691 234.214C259.15 241.03 247.198 233.176 244.794 231.506C240.511 228.53 236.033 226.338 231.035 224.87C225.183 223.151 229.269 224.179 232.255 224.734C237.384 225.688 242.608 226.856 247.369 229.065C250.153 230.357 256.893 233.923 254.148 235.297C251.307 236.719 248.984 231.574 246.217 230.014C240.769 226.944 234.452 224.055 228.053 224.058C221.341 224.061 240.985 227.671 247.369 229.743C254.766 232.144 238.69 226.392 237.135 226.087C231.882 225.058 216.43 230.143 221.753 230.702C222.986 230.831 236.959 229.576 235.442 230.561C232.151 232.697 229.043 234.432 226.093 237.138C222.26 240.654 215.799 254.068 215.797 248.866C215.794 241.732 223.445 234.232 226.496 228.125C230.857 219.393 217.796 246.014 216.681 255.71C215.98 261.805 217.752 255.004 217.832 254.693C219.74 247.305 221.809 239.876 226.498 233.682C227.724 232.062 229.289 230.538 231.308 230.088C234.236 229.436 227.423 234.695 225.89 237.273C221.764 244.212 219.057 251.753 217.699 259.708C217.181 262.739 218.142 271.881 217.296 268.924C214.023 257.488 216.521 244.126 221.009 233.413C221.669 231.838 224.155 227.36 223.243 228.804C219.48 234.767 216.241 240.824 214.441 247.714C212.985 253.287 212.204 259.369 213.906 264.995C214.469 266.855 215.742 270.904 217.296 269.737C218.374 268.929 214.848 246.155 219.727 246.763C220.013 246.799 220.784 257.378 220.815 257.538C221.977 263.415 224.289 268.383 230.578 269.732C232.337 270.109 236.933 270.773 238.711 269.661C241.349 268.011 232.582 268.479 229.629 267.496C225.734 266.2 221.617 264.245 219.461 260.52C218.804 259.385 218.699 252.507 218.511 256.454C218.302 260.826 218.741 280.572 228.48 276.239C230.29 275.433 225.062 274.221 223.261 273.394C222.585 273.084 209.85 267.111 216.482 267.298C221.34 267.435 234.519 272.118 230.985 268.783C228.691 266.618 222.739 269.424 222.853 269.464C224.111 269.904 246.752 271.471 245.892 265.253C245.537 262.688 220.7 271.568 229.494 269.936C234.895 268.934 242.337 267.521 246.773 264.033C250.035 261.468 238.735 266.21 234.915 267.833C220.724 273.86 238.029 273.551 243.454 268.914C245.855 266.861 225.835 277.098 234.376 275.287C244.03 273.241 251.61 266.385 256.596 258.066" stroke="white" stroke-width="3" stroke-linecap="round"/>
<path d="M272.439 220.246C272.435 208.823 270.308 265.673 268.929 254.334C267.633 243.684 268.784 232.341 268.78 221.602C268.776 211.186 267.661 242.412 266.624 252.776C266.447 254.547 265.321 272.048 265.817 268.498C266.97 260.239 267.051 251.74 267.298 243.424C267.451 238.285 268.674 230.081 267.426 224.788C265.34 215.936 264.386 242.889 264.997 251.964C265.258 255.84 266.417 266.736 268.051 263.212C270.812 257.258 269.611 245.931 269.736 239.764C269.742 239.453 270.057 228.145 269.189 225.939C267.399 221.396 266.339 235.367 266.009 240.239C265.479 248.054 265.324 256.232 266.357 264.026C266.459 264.791 266.451 265.687 266.968 266.262C268.116 267.536 267.964 262.955 268.118 261.246C269.112 250.269 269.208 238.657 267.834 227.702C266.445 216.627 267.926 250.033 268.525 261.178C269.049 270.926 268.797 262.885 268.795 258.535C268.793 253.928 267.444 247.274 270.415 243.219C274.184 238.076 284.353 228.102 291.688 228.099C295.247 228.098 293.188 252.215 293.189 254.799C293.194 267.058 291.123 205.811 291.277 218.07C291.415 228.957 292.556 261.349 294.272 250.597C295.336 243.933 294.315 236.593 294.399 229.86C294.412 228.842 294.186 227.767 294.534 226.81C295.36 224.534 295.372 231.584 295.621 233.993C296.751 244.913 296.965 255.634 294.956 266.454C293.323 275.252 294.409 253.626 294.409 253.036C294.407 248.384 291.689 232.742 294.467 228.572C294.708 228.211 295.248 229.325 295.077 229.724C294.692 230.624 293.216 229.116 292.298 228.776C279.943 224.206 275.594 240.093 270.553 248.166C266.075 255.336 281.026 233.609 288.978 230.743C290.294 230.269 294.685 230.527 294.128 228.233C293.067 223.867 287.743 223.356 284.368 225.256C278.133 228.766 273.401 236.144 269.669 242C267.078 246.065 263.752 254.011 268.451 244.779C273.129 235.586 284.566 219.321 296.838 226.064C299.327 227.432 302.565 236.113 301.582 228.027C299.976 214.824 287.381 218.186 280.98 225.392C275.653 231.39 272.124 238.502 267.909 245.253C264.479 250.746 268.159 244.062 269.195 242.474C273.904 235.257 291.599 217.819 299.008 231.484C301.704 236.456 299.29 257.702 299.283 241.649C299.282 238.526 299.303 234.273 299.211 231.145C299.139 228.676 297.493 221.55 298.599 223.759C302.313 231.181 299.95 244.548 299.288 252.357C298.264 264.423 298.184 260.363 297.999 250.663C297.888 244.85 295.687 217.167 296.3 238.737C296.532 246.871 295.836 270.806 298.343 263.064C301.731 252.605 302.301 235.045 297.786 224.844C293.243 214.579 292.173 234.667 292.165 235.147C292.037 243.385 292.272 251.753 293.192 259.949C293.364 261.488 294.361 265.617 295.023 264.217C297.721 258.515 296.811 250.282 296.845 244.225C296.888 236.443 298.617 225.748 295.615 218.339C295.294 217.547 293.495 215.627 293.243 217.527C292.167 225.616 293.48 234.674 294.472 242.668C294.796 245.274 294.935 259.398 298.342 260.896C301.222 262.161 301.193 246.988 301.183 246.257C301.118 241.726 301.326 232.573 297.516 229.113C296.862 228.518 294.704 228.451 294.467 229.521C293.685 233.045 294.402 237.338 294.404 240.974" stroke="white" stroke-width="3" stroke-linecap="round"/>
<path d="M109.727 18.2338C88.9947 -8.28184 42.9391 0.511109 24.343 25.0443C9.99453 43.9738 -1.0873 73.307 4.3804 97.5631C7.14086 109.809 11.6257 120.241 22.4859 127.102C31.0703 132.526 40.9551 137.858 50.6825 140.916C64.3533 145.214 82.1447 139.109 94.8641 134.393C98.4764 133.053 111.123 123.914 109.699 118.936C108.781 115.728 105.978 115.3 106.104 110.941C106.122 110.344 107.322 105.524 107.323 107.62C107.324 110.167 106.107 118.051 106.107 117.989C106.105 112.54 107.468 107.352 108.269 101.995C109.26 95.3743 107.613 109.916 107.324 111.347C103.927 128.154 109.897 101.258 108.268 98.7418C106.891 96.6162 100.492 96.666 98.2374 96.3061C97.5344 96.1939 91.2266 94.7766 93.0189 95.2239C97.3792 96.3122 101.236 98.5745 105.828 98.7428C107.63 98.8088 98.6205 94.8956 97.2879 94.409C92.4711 92.6502 84.5275 90.2125 79.1924 90.2146C71.8823 90.2175 70.8824 90.576 72.0126 99.0272C72.1374 99.9604 97.3828 103.601 90.2419 98.7489C86.3364 96.0955 81.843 93.3996 77.0927 92.7228C76.7743 92.6775 83.0192 95.7818 85.7 94.9558C88.918 93.9642 82.6128 89.5337 81.4284 89.265C80.1309 88.9707 71.6398 89.294 75.8726 92.1134C77.8455 93.4276 85.3573 94.2379 83.8683 89.9417C82.8415 86.9792 76.5721 86.8831 74.9227 89.2676C70.3263 95.9125 86.7632 93.6547 78.5818 88.4529C70.1925 83.1189 75.7618 105.413 78.9903 93.1965C79.7623 90.2755 76.6027 87.9116 73.9057 87.9126C71.223 87.9137 71.3134 94.5697 73.8407 95.0282C81.741 96.4614 72.3614 85.8246 73.3657 93.3342C74.2451 99.91 84.8276 99.7955 76.145 95.3661C70.4357 92.4536 79.8207 98.9232 80.7547 99.4303C86.594 102.601 92.7839 105.389 99.1905 107.216C104.661 108.777 90.7074 99.6139 86.1748 96.1754C85.5393 95.6932 75.5703 90.2357 82.1082 94.5506C87.8958 98.3703 96.8404 104.332 104.069 104.436C106.149 104.466 94.0649 94.8146 93.493 94.4105C90.577 92.3502 86.2767 88.4566 82.5121 87.7737C74.8981 86.3925 96.067 95.3306 103.253 98.2016C111.863 101.642 98.3029 92.4785 96.8802 91.563C93.1514 89.1635 77.5262 84.1745 89.0183 89.1265C94.7736 91.6065 112.651 97.2584 106.505 96.0318C96.9189 94.1185 87.6516 91.4311 77.7698 91.435C71.512 91.4375 89.9363 94.3827 96.0686 95.6293C111.149 98.695 96.5594 94.8936 90.2398 93.3953C88.6563 93.0199 68.8514 89.0422 78.7869 92.9255C86.5258 95.9502 109.588 104.829 102.576 100.37C97.3893 97.0727 89.833 95.2222 83.7348 95.0921C80.3282 95.0194 95.0695 100.583 97.6971 100.915C98.2177 100.98 105.36 102.519 102.645 102.2C97.6919 101.619 84.8942 94.5496 88.2087 98.2754C90.1395 100.446 96.9134 103.083 99.8665 103.082C100.794 103.082 98.3812 101.933 97.8328 101.186C97.0322 100.095 96.6108 102.02 96.3425 102.677C95.8254 103.942 91.831 116.503 91.4687 116.503C89.7496 116.504 91.5309 113.06 91.7377 111.353C91.832 110.576 92.3033 104.336 93.6324 104.169C94.8198 104.02 84.4053 142.22 93.7702 110.065C96.9472 99.1561 94.5832 111.289 93.908 115.689C92.1797 126.953 97.3743 109.191 99.1899 105.793C101.786 100.935 92.4355 126.699 94.7914 121.72C96.1159 118.921 101.092 106.383 101.02 107.283C100.782 110.274 94.3747 126.824 97.7719 118.534C100.384 112.159 105.83 99.7665 101.769 114.602C97.7401 129.317 102.268 115.633 104.342 109.586C108.023 98.8542 103.693 115.669 102.448 118.397C100.827 121.946 103.751 110.177 106.509 107.417C108.872 105.052 105.067 114.092 103.26 116.905C99.3929 122.927 93.2394 125.337 86.865 127.89C85.8957 128.278 73.2161 134.238 80.6316 130.874C86.4811 128.221 98.0984 122.606 99.7359 115.551C101.493 107.984 89.7675 119.903 88.3531 120.842C82.8947 124.466 70.0588 128.032 70.0588 128.032C70.0588 128.032 84.3169 124.532 90.9285 121.451C96.4694 118.869 103.94 113.609 94.656 122.127C90.91 125.563 86.7794 128.535 82.2581 130.874C79.4399 132.331 70.1608 134.482 73.3141 134.13C82.0483 133.156 94.854 128.014 101.907 122.869C108.786 117.852 101.396 126.693 99.2667 128.427C92.6279 133.835 87.3168 134.049 97.6401 128.021C99.675 126.833 113.586 120.036 104.212 124.088C93.9744 128.514 84.0983 133.953 72.8402 135.282C68.1226 135.839 81.3967 133.107 81.5812 133.043C84.1027 132.161 106.348 119.845 93.9108 122.737C85.7272 124.64 61.5124 131.254 69.8564 130.269C77.526 129.363 99.5906 122.185 91.9458 123.28C87.8878 123.861 83.8588 124.642 79.8162 125.318C77.2888 125.74 74.7393 126.037 72.2268 126.541C71.3409 126.718 74.0356 126.594 74.9375 126.54C79.7595 126.249 101.444 124.733 84.8312 125.858C67.5845 127.026 50.4853 119.292 36.8454 109.071C32.4947 105.81 45.4012 120.379 47.0155 121.807C53.2586 127.329 76.6563 136.742 69.9248 131.827C65.1824 128.365 60.0858 125.231 55.1477 122.075C52.5008 120.383 44.5556 115.364 41.3198 113.542C40.852 113.278 39.5127 112.498 39.8287 112.932C40.4806 113.828 41.52 114.365 42.4047 115.032C50.7959 121.356 78.494 136.557 69.6534 130.879C65.0901 127.948 60.5137 125.005 55.8255 122.278C49.2837 118.472 46.1183 117.713 53.522 123.973C56.9536 126.874 63.5772 133.714 68.5026 134.064C73.9396 134.45 59.7522 127.491 54.9455 124.921C38.1128 115.92 74.8389 141.819 60.0313 132.983C54.9888 129.975 41.3174 119.726 44.5093 124.654C47.2546 128.893 53.1312 132.573 57.2537 135.356C57.8413 135.753 58.3918 136.286 59.0839 136.44C60.7692 136.814 56.6254 134.008 55.2875 132.917C53.5514 131.502 40.8112 122.124 42.2728 124.248C45.1867 128.483 50.6045 135.857 55.696 137.661C60.6064 139.401 48.3729 130.215 44.3069 126.958C31.0019 116.301 61.0736 142.849 48.3749 131.836C47.3943 130.985 37.2586 122.607 38.7492 124.927C41.4339 129.107 45.3272 134.391 49.8677 136.715C50.8477 137.216 37.8159 126.872 41.3263 129.941C47.2838 135.15 60.3183 144.15 68.9119 140.841C70.1546 140.362 76.9961 139.933 76.0947 139.483C72.5728 137.723 67.5348 136.843 63.6244 136.845C61.8888 136.845 66.0077 139.676 67.6918 140.096C72.5985 141.32 77.7802 141.426 82.8043 141.174C84.7901 141.075 90.2996 139.442 88.3603 139.003C81.2213 137.388 59.5627 136.138 66.4037 138.741C71.7803 140.787 82.2762 139.504 87.8179 138.394C88.8588 138.185 76.0091 138.235 72.5028 138.874C67.1468 139.85 83.0253 135.992 88.0873 133.989C95.7691 130.948 85.2954 131.648 82.5295 131.687C78.8312 131.738 78.575 134.196 76.5667 133.587C62.7204 129.386 46.8537 120.409 38.065 108.528C34.4832 103.686 31.6006 84.3407 33.5216 100.804C33.6703 102.079 34.2947 114.726 32.916 111.647C28.9229 102.731 30.4432 90.5228 31.413 81.1527C31.4447 80.8463 31.6825 77.1659 31.6838 80.4072C31.686 86.0319 31.6882 91.6565 31.6905 97.2812C31.6918 100.602 31.6957 110.564 31.6944 107.243C31.6916 100.058 31.3592 92.8711 31.076 85.6933C30.9083 81.4438 31.1786 77.1329 30.3933 72.9533C30.1187 71.4925 29.3727 75.7606 29.1074 77.2232C27.5725 85.6841 26.3131 94.1906 25.1192 102.705C24.9475 103.93 24.5112 107.601 24.5107 106.365C24.5095 103.333 24.8488 100.31 25.0493 97.2838C25.5403 89.8742 29.2865 68.1598 26.5314 75.0556C24.6878 79.6698 24.2716 85.8413 23.1492 90.6434C22.1 95.1324 21.2718 98.3071 20.3077 102.707C20.0024 104.101 20.1346 108.185 19.4962 106.909C17.2173 102.356 19.5089 89.7311 19.4875 84.9524C19.4763 82.4637 20.3701 63.6122 17.4519 78.4476C15.9043 86.3152 14.559 94.2236 13.0564 102.1C12.9116 102.859 12.3668 105.105 12.4474 104.337C12.6915 102.009 13.9702 92.6917 14.0689 91.9346C15.06 84.332 15.4264 81.4525 16.2304 74.0432C16.47 71.8351 18.3398 65.8306 16.7699 67.4018C13.5957 70.5784 13.1353 82.964 12.305 87.1238C11.9443 88.9311 11.6378 90.75 11.2229 92.5456C10.7011 94.8041 10.3703 95.3377 10.5452 92.5459C11.0931 83.8032 12.5988 75.1374 13.11 66.3867C13.5266 59.2566 10.0374 77.1836 9.99709 77.3663C9.12965 81.2988 8.75681 83.0024 7.83218 86.5834C7.65685 87.2625 8.1795 85.2242 8.37352 84.5502C10.2668 77.9732 12.5749 71.447 14.0581 64.76C14.7902 61.4593 10.3601 75.6485 10.2676 76.0108C9.1396 80.4299 7.35414 89.9455 11.4887 79.2631C13.5308 73.987 17.9933 57.6092 16.7682 63.1325C16.1373 65.9767 10.1554 89.4132 13.1146 77.8394C13.6169 75.8745 18.7905 53.4562 20.0851 53.7793C21.4191 54.1122 15.437 79.2551 15.0135 81.5658C14.6922 83.3193 14.3214 85.0733 14.2024 86.852C14.0383 89.3045 14.857 89.0281 15.9645 87.1224C20.0227 80.1387 21.6911 72.1043 24.4942 64.6203C26.6737 58.8013 21.5859 76.7043 20.2998 82.7836C18.9392 89.2156 18.5181 94.934 21.5202 84.2739C23.1624 78.4428 23.6169 70.4458 26.3241 65.0262C29.9732 57.7207 24.4889 81.2665 24.0974 89.4232C23.7868 95.8958 27.897 78.3247 27.9557 78.0368C27.9663 77.9845 31.4787 58.8216 30.7984 69.3615C30.704 70.8248 28.5772 91.9388 30.3964 80.8143C31.0423 76.8645 31.2054 75.2031 32.1546 71.5295C34.9051 60.8854 36.6796 49.9096 39.9352 39.4048C42.0465 32.5919 39.0545 45.1112 38.8533 45.6398C37.6203 48.8804 36.1883 52.2817 34.3845 55.2645C32.1354 58.9838 37.3964 47.1092 38.9879 43.0646C39.1039 42.7696 47.1523 22.8477 41.4235 32.8986C36.3963 41.7183 32.1609 51.144 26.5252 59.6047C25.0158 61.8709 28.6276 54.581 29.7073 52.0813C31.4264 48.1017 27.3652 58.1635 27.4724 55.6738C28.0362 42.5887 11.1151 74.9339 24.2191 54.4553C28.6533 47.5257 33.1665 40.2845 36.5442 32.765C36.7393 32.3306 39.2073 27.0062 35.7299 30.1901C32.7177 32.9482 27.7266 39.682 25.7053 42.6633C25.4868 42.9856 14.2378 63.4835 19.0703 58.2523C26.8379 49.844 34.4337 38.5228 38.7108 27.8849C42.9441 17.3557 27.9626 31.3668 27.1921 32.2265C23.9883 35.8012 21.231 40.012 19.0648 44.2923C18.1288 46.1417 15.3952 51.0616 17.3052 50.2565C23.1622 47.7877 31.2092 32.2886 32.069 26.3966C32.8843 20.8102 15.1809 41.3445 19.062 37.2445C20.4431 35.7855 27.6953 24.4037 26.7145 24.0269C23.4326 22.7661 11.8733 42.9527 10.3233 45.5833C8.93923 47.9324 5.56607 55.2975 7.27683 53.1745C11.1014 48.4281 14.3761 42.8276 17.0968 37.3808C21.2915 28.9832 5.97699 52.8114 2.80755 61.6471C0.452267 68.2131 3.50106 66.0879 6.06075 62.5946C8.87363 58.7556 11.2379 54.3418 12.8324 49.8517C15.9259 41.1403 5.8712 67.1514 4.43975 76.2842C1.48435 95.1399 8.85282 59.2941 9.11555 75.9435C9.35196 90.9245 15.3306 50.7995 11.3473 64.2867C8.34301 74.4587 6.82449 85.3981 6.95494 96.0034C6.97085 97.2972 7.61226 100.951 8.04069 99.7302C8.87456 97.3539 10.276 87.4292 10.4073 86.5824C11.5999 78.8957 12.739 71.2064 14.0576 63.5401C15.1242 57.3393 11.0083 75.764 9.99891 81.9744C8.38977 91.8748 5.0776 106.965 12.1808 115.722C12.5122 116.13 19.4745 121.139 16.925 116.94C14.8016 113.442 12.4569 110.5 11.3639 106.438C11.0909 105.423 10.6195 91.7918 12.4435 94.4426C17.5016 101.794 19.0376 112.407 23.0254 120.461C24.7712 123.987 31.0588 133.678 25.6691 122.357C24.0325 118.92 18.958 109.327 22.0732 111.516C23.1647 112.283 38.0925 126.19 29.665 116.392C29.1077 115.744 15.3355 103.65 20.5828 112.737C24.759 119.969 33.4511 127.634 42.1389 128.45C50.5055 129.236 20.8109 96.6509 18.953 104.199C17.034 111.994 31.0789 120.433 36.3088 122.895C46.5002 127.693 43.0711 119.512 39.2872 114.491C35.7423 109.787 30.0539 102.183 24.034 100.334C17.8107 98.4216 25.5622 113.981 29.6661 119.035C30.6484 120.245 47.0791 137.484 41.5272 123.774C38.5724 116.478 32.5854 103.625 25.1858 99.7234C22.1789 98.138 23.6592 104.182 23.8325 104.874C25.2196 110.414 22.8403 93.4958 22.4704 87.7975C21.5508 73.6317 21.9616 62.2566 26.5211 49.033C29.8671 39.3287 34.0636 31.2551 40.742 23.3437C44.8833 18.4378 51.5926 8.58776 57.7447 6.12408C60.9427 4.84341 52.4638 10.5505 49.8864 12.8361C44.6428 17.4861 29.557 32.0786 34.17 26.8024C39.3267 20.9042 45.8174 15.7391 52.2577 11.3443C56.3548 8.54844 68.5811 0.713575 65.5374 4.63012C63.5498 7.18769 57.1874 10.0726 54.8329 11.6144C48.4138 15.8178 40.8846 19.8326 35.1858 25.04C32.1657 27.7997 42.2618 20.9306 45.755 18.8013C49.568 16.477 59.8793 9.00862 57.8152 12.9685C55.6967 17.033 44.1549 22.9955 41.0138 25.241C25.2358 36.5205 50.0568 20.1877 51.8541 19.0699C52.7586 18.5074 58.3247 14.9741 60.4586 14.1195C61.1509 13.8423 59.7476 15.4759 59.1717 15.9497C52.8494 21.1524 45.9433 25.7813 39.0505 30.1888C29.2889 36.4309 57.8846 13.3751 69.4713 13.3705C71.0869 13.3699 82.3063 14.5853 75.8419 14.5878C70.2745 14.59 64.2777 13.9742 58.7647 14.8656C57.1208 15.1314 70.9118 18.8851 71.5066 19.0622C81.3473 21.9912 108.502 36.5692 98.687 33.5536C93.9073 32.085 72.6214 12.0228 69.2007 14.5904C66.4832 16.6303 74.626 18.6923 77.4707 20.5507C83.5866 24.5461 90.8635 28.432 95.2312 34.5037C97.8664 38.167 97.2803 37.5981 102.009 37.7538C104.129 37.8236 113.177 41.6927 114.412 40.6629C116.259 39.1221 113.105 30.064 112.713 28.5333C111.779 24.8883 108.001 14.3123 108.575 18.031C109.512 24.109 115.53 41.4144 112.512 36.0555C109.729 31.1114 104.307 15.5456 104.171 21.2178C104.068 25.516 110.538 44.8434 107.428 31.9237C106.956 29.9617 102.11 9.63678 102.613 21.0829C102.713 23.3799 102.916 30.7769 105.395 32.1278C108.214 33.6641 106.518 25.6336 105.798 22.5047C105.162 19.7385 104.029 15.2578 101.728 13.2222C99.3734 11.138 99.544 22.7149 99.5638 22.9816C99.5905 23.3424 100.958 32.6441 103.091 31.7899C104.733 31.1324 100.291 19.449 99.9686 18.6443C94.6665 5.40411 91.5899 28.7282 96.9927 33.2832C100.137 35.9343 93.7841 6.78675 93.4598 10.6503C93.0251 15.83 94.5048 21.5535 96.2445 26.3712C99.5851 35.6224 96.3527 23.0523 96.0395 22.1697C95.9592 21.9432 89.3018 5.99225 91.1578 15.8693C92.4095 22.5306 92.9125 18.6354 89.8701 15.4632C89.5268 15.1053 88.9721 14.4118 88.5822 14.7183C87.4859 15.5804 89.4938 17.4083 90.3457 18.5126C93.0145 21.972 87.9986 10.5042 87.7672 10.1105C80.9258 -1.53077 80.8644 16.5043 87.9066 19.8689C90.1062 20.9198 85.9064 1.74889 82.004 2.72612C77.6604 3.81387 93.5743 25.6814 86.3439 9.56888C85.3389 7.32947 81.2609 -1.49312 79.6334 5.84435C79.3741 7.01355 79.6138 16.1139 83.2278 12.6874C92.0706 4.30334 67.0705 -1.41406 77.8736 11.1309C86.5527 21.2094 87.1684 5.05753 78.8207 6.99671C66.9131 9.76285 89.858 22.2464 83.4312 12.9584C81.6837 10.4328 77.7783 5.4148 74.2119 5.50766C68.4919 5.65659 72.3944 16.0919 74.6234 17.9089C78.5591 21.117 82.0469 17.1877 79.6364 13.231C78.6474 11.6077 70.3568 2.77135 68.4525 7.61072C64.9037 16.6299 80.9357 24.6511 77.8752 15.1291C73.9804 3.01191 57.8517 13.0072 65.1362 18.387C69.5375 21.6375 71.7448 8.12775 60.7959 10.2567C50.593 12.2405 68.3585 16.6517 69.4728 17.0299C81.2766 21.0365 90.628 25.0267 96.1131 36.8074C101.744 48.9015 94.9482 29.7528 93.8727 26.5755C93.2248 24.6611 90.7659 19.2185 91.0244 21.223C91.8407 27.552 94.5594 34.4804 98.486 39.5172C106.131 49.324 103.477 30.6473 100.515 30.3C99.557 30.1877 99.8559 40.6817 100.791 41.9559C102.887 44.8109 113.957 47.1252 110.551 46.1536C107.47 45.2747 94.0241 40.624 104.248 43.1065C112.285 45.0581 109.312 41.7419 105.059 38.0237C102.368 35.6709 112.562 43.8143 112.854 43.0354C113.147 42.2533 103.583 32.5941 108.785 35.5826C114.449 38.8365 113.565 38.4361 110.139 31.9226C109.06 29.8703 97.3961 7.52087 99.6974 18.17C100.314 21.0245 108.591 36.8062 105.801 29.8913C105.021 27.9568 101.771 20.2784 98.6143 21.22C94.4918 22.4497 99.1584 34.389 100.247 36.2636C101.879 39.076 105.741 40.7971 107.973 37.4804C110.612 33.5581 107.273 26.4676 105.527 22.9792C101.699 15.3299 95.7588 9.85832 87.0893 9.70412C76.6778 9.51894 66.6677 5.65736 56.1868 7.95441C54.8864 8.23941 45.8693 10.9322 51.9856 8.83704C57.8819 6.81727 64.0334 4.8473 70.349 5.10258C74.1581 5.25654 73.3775 5.9801 70.5527 6.11901C57.6214 6.75493 47.8189 11.0195 36.6735 17.1785C25.4322 23.3904 40.1918 15.6662 43.3135 14.1941C47.9615 12.0023 52.9355 10.8516 58.0855 10.9354C61.9062 10.9976 51.1447 14.135 47.6512 15.6832C45.9225 16.4494 31.2162 26.4919 29.6287 24.6356C24.2274 18.32 32.1019 12.073 34.0945 7.28548" stroke="white" stroke-width="3" stroke-linecap="round"/>
<path d="M41.4186 21.9203L43.8635 35.3372" stroke="white" stroke-width="3" stroke-linecap="round"/>
<path d="M128.047 76.7774C133.196 60.9889 129.06 79.1419 128.051 85.1806C126.656 93.5253 125.293 101.86 123.452 110.121C121.54 118.702 123.51 108.775 123.993 106.461C125.981 96.9366 128.387 87.4697 129.945 77.861C131.303 69.49 130.502 78.8188 130.489 81.3846C130.424 93.7659 125.45 130.542 128.132 118.454C130.825 106.309 131.65 94.1839 132.319 81.7905C132.555 77.4165 132.918 55.5812 132.925 72.3029C132.932 91.1837 130.636 109.996 130.643 128.822C130.645 133.517 132.16 127.628 132.269 126.991C133.555 119.44 133.573 111.38 133.886 103.746C134.229 95.3992 134.221 87.0256 134.147 78.6725C134.128 76.4692 134.33 73.9102 133.196 71.8962C132.487 70.6382 131.932 74.537 131.706 75.9628C130.395 84.239 129.861 92.6735 129.548 101.037C129.252 108.929 129.17 116.859 129.286 124.756C129.328 127.641 129.99 126.906 130.506 124.485C133.992 108.11 132.94 87.5022 131.095 70.9482C129.796 59.3079 127.485 88.1424 127.442 88.7725C127.19 92.5274 121.989 127.485 127.39 129.026C128.714 129.404 131.502 95.8783 131.578 93.5823C131.825 86.1556 131.707 78.7164 131.705 71.2868C131.702 65.8796 130.72 71.0336 130.214 73.2527C126.448 89.7964 124.4 106.696 124.406 123.674C124.406 123.675 124.682 129.625 125.356 125.977C126.713 118.635 127.032 110.894 127.787 103.478C128.628 95.2108 129.212 86.9842 129.268 78.6744C129.284 76.3122 130.4 69.8324 129.263 67.5606C127.515 64.0672 128.383 75.3248 128.048 79.217C127.01 91.2998 126.16 103.394 125.081 115.474C124.549 121.426 124.692 137.184 125.626 121.911C126.696 104.397 130.491 86.9354 130.484 69.3898C130.479 57.3784 125.369 92.9024 123.992 104.835C123.566 108.533 120.183 128.376 124.409 130.722C126.325 131.785 133.107 131.667 130.915 131.668C130.174 131.668 125.214 131.779 126.849 131.669C129.989 131.459 130.249 120.959 130.504 119.199C132.681 104.13 134.914 88.5984 138.482 73.7915C140.588 65.0528 144.5 62.1332 134.141 62.1373C128.98 62.1394 132.537 62.0846 135.631 62.1367C145.763 62.3074 136.73 62.5832 135.632 64.7796C134.781 66.4838 134.641 73.4621 137.125 68.8451C139.722 64.0172 135.231 75.7317 134.824 77.2491C130.076 94.9754 142.286 53.8988 135.772 74.7414C134.085 80.1386 132.279 85.5066 130.492 90.872C130.492 90.8741 129.075 94.532 129.545 94.5318C131.976 94.5309 140.824 86.4031 142.959 85.0391C144.317 84.1718 156.832 74.7342 152.173 78.5298C143.902 85.2676 136.922 93.8846 129.819 101.783C124.874 107.282 138.392 89.6927 143.298 84.158C147.023 79.9549 150.791 75.5726 155.288 72.1585C156.436 71.2867 160.197 69.2531 158.811 69.6497C151.115 71.8519 143.908 81.7083 138.962 87.277C134.569 92.2234 129.987 97.1704 126.092 102.53C125.121 103.867 123.88 105.644 126.499 103.072C135.6 94.1323 143.943 84.3976 152.714 75.1413C155.552 72.1464 159.885 66.6718 164.095 64.5651C164.992 64.1161 162.384 65.6378 161.656 66.328C152.568 74.9442 143.949 83.6607 135.915 93.3095C133.55 96.1497 131.483 99.6432 128.871 102.258C126.435 104.695 132.775 96.5777 134.695 93.7166C140.689 84.7882 147.066 72.9991 156.573 67.1432C160.363 64.8092 173.628 69.4019 169.924 66.9346C167.482 65.3084 160.547 66.0383 161.858 63.4139C162.035 63.0598 165.722 63.3446 165.924 63.3445C166.314 63.3444 171.165 63.5872 171.142 63.6135C162.161 73.725 146.161 77.6819 136.861 88.0233C132.596 92.7665 147.618 81.1634 152.986 77.7163C156.076 75.7318 160.907 71.6147 164.775 71.206C169.273 70.7307 157.512 76.61 154.071 79.5456C146.206 86.2559 123.321 107.14 131.513 100.833C143.544 91.571 153.637 79.5855 165.655 70.0536C177.014 61.0451 160.912 71.8831 158.27 73.987C148.502 81.766 138.871 90.1254 130.564 99.4784C122.464 108.598 137.518 96.2393 138.626 95.2059C145.108 89.1634 151.46 82.8845 157.458 76.3592C159.248 74.412 163.018 71.2235 163.825 68.4957C164.522 66.1387 158.81 69.2841 156.778 70.667C144.943 78.7221 134.426 89.18 125.956 100.7C120.756 107.772 127.593 96.2777 128.732 94.7355C130.884 91.8211 131.521 93.8534 134.153 93.8523" stroke="white" stroke-width="3" stroke-linecap="round"/>
<path d="M209.776 79.1846C209.308 74.995 201.189 71.6186 198.116 70.515C183.285 65.1889 170.898 80.767 164.173 91.5362C156.869 103.233 150.143 120.212 162.63 130.3C176.027 141.122 197.107 128.247 202.877 114.901C207.258 104.768 211.86 88.854 202.864 79.865C189.909 66.9205 174.755 81.6436 167.088 92.6194C162.976 98.5052 158.217 105.715 159.031 113.292C160.045 122.718 170.791 128.065 179.435 127.379C197.896 125.914 214.14 105.842 207.746 87.724C203.174 74.7694 189.981 71.6097 179.552 79.7387C169.174 87.8272 153.634 113.901 168.388 124.74C183.576 135.899 205.544 113.284 208.699 99.7862C212.543 83.3422 199.537 65.6527 182.939 78.1109C172.947 85.6114 156.742 111.208 172.723 120.944C188.052 130.282 214.347 102.56 206.932 86.9112C199.702 71.6506 172.854 95.4276 168.65 102.987C164.094 111.181 169.849 122.23 179.5 121.483C194.905 120.292 213.738 97.7923 203.813 82.8464C191.634 64.5048 172.35 82.1696 166.004 95.7371C158.631 111.502 161.668 136.404 184.11 124.531C196.981 117.721 220.646 89.0344 202.455 75.6636C184.146 62.2058 164.694 99.1001 164.113 112.137C163.09 135.111 190.653 123.949 200.235 115.647C211.824 105.606 221.845 81.7275 200.964 75.7997C177.454 69.1255 156.252 97.5279 152.934 118.038C151.438 127.286 157.063 133.173 166.155 134.229C179.256 135.751 190.349 127.456 199.626 119.307C210.241 109.983 218.221 92.4592 209.775 79.049C196.072 57.2899 172.834 86.4242 167.564 99.057C164.89 105.47 161.591 114.744 166.557 120.946C173.179 129.218 182.411 128.119 190.954 123.783C205.119 116.592 220.854 98.6477 211.403 82.0301C199.893 61.7913 177.975 83.7207 170.07 94.6512C164.976 101.695 157.546 111.83 158.967 121.22C160.382 130.568 169.998 131.97 177.742 129.955C196.263 125.136 212.437 107.815 209.237 87.7234C207.518 76.935 192.95 70.9187 183.413 76.0099C172.7 81.7286 158.638 104.247 162.489 116.882C167.216 132.392 190.514 126.279 199.355 118.629C209.013 110.272 222.933 95.3988 218.789 81.1463C217.658 77.255 215.336 72.1048 210.992 71.8652C203.518 71.4529 204.61 98.6115 204.228 103.718C203.944 107.517 202.155 115.917 204.302 119.779C207.126 124.856 204.908 108.172 204.905 102.363C204.901 91.3931 205.534 80.0583 203.944 69.1573C202.867 61.7776 204.354 84.0675 204.63 91.5202C205.044 102.712 205.359 113.889 206.134 125.064C206.405 128.966 207.301 134.156 207.965 126.961C209.65 108.683 208.56 90.0128 208.553 71.6629C208.546 54.5026 209.28 105.999 210.742 123.097C212.057 138.478 212.22 92.2481 212.214 76.8118C212.213 73.7878 211.697 68.1545 211.265 75.389C210.421 89.5035 210.912 103.81 211.011 117.947C211.013 118.22 211.629 131.827 212.844 126.959C215.524 116.219 214.613 103.974 214.66 93.0071C214.666 91.5625 216.059 74.6351 214.043 73.8293C211.698 72.8926 213.29 78.8304 213.165 81.3518C212.784 89.0368 212.707 96.7003 212.903 104.393C213.085 111.569 212.911 119.143 214.402 126.213C214.889 128.519 214.827 121.519 214.942 119.165C215.582 106.016 215.88 92.8888 215.875 79.7243C215.871 70.9074 215.873 75.1172 215.875 80.8763C215.88 92.6897 215.813 104.505 215.889 116.319C215.892 116.743 216.725 130.71 217.047 130.549C218.009 130.067 217.347 115.639 217.38 114.827C217.925 101.266 218.318 87.739 218.312 74.1664C218.307 60.5211 216.829 101.482 217.718 115.098C217.905 117.954 216.856 126.301 218.605 128.922C219.919 130.891 214.412 126.576 212.098 126.079C202.06 123.923 219.438 125.032 212.776 125.807C211.584 125.946 202.965 126.76 208.575 126.758C214.513 126.755 210.331 118.772 209.993 114.898C209.019 103.751 210.485 92.6176 212.216 81.6232C212.895 77.3108 215.064 73.2121 209.908 71.8657C209.391 71.7305 201.026 70.0643 204.148 71.9357C205.786 72.9175 214.038 73.9599 213.636 73.5584C212.78 72.7026 207.956 71.0692 210.856 70.3744C211.643 70.1859 217.785 68.4064 217.226 68.2033C215.36 67.5258 209.414 67.0575 211.397 66.9858C214.23 66.8835 218.154 66.9832 212.752 66.9853C207.862 66.9872 219.748 68.2023 218.107 68.203C215.174 68.2042 203.464 67.333 211.534 69.9675C219.759 72.653 219.66 70.3025 212.347 69.4928C207.448 68.9505 215.022 70.4869 216.278 70.6433C217.403 70.7836 213.759 70.701 212.957 69.8992C211.706 68.6494 213.213 66.1883 212.753 68.3406C212.273 70.5833 211.19 74.403 213.433 75.5237" stroke="white" stroke-width="3" stroke-linecap="round"/>
<path d="M232.951 77.9557C232.946 67.2925 229.312 120.121 232.489 109.942C235.257 101.073 234.915 89.5363 235.323 80.2589C235.936 66.356 235.394 88.0139 235.395 90.8305C235.401 104.788 236.02 118.906 235.141 132.846C234.652 140.6 233.911 149.083 234.871 135.015C236.191 115.664 237.097 96.3278 238.778 77.0047C239.549 68.1417 238.915 70.2275 239.118 78.2921C239.538 95.0707 241.135 111.79 241.442 128.574C241.522 133.001 242.031 153.825 243.004 137.18C244.311 114.798 245.137 47.5344 245.146 69.9544C245.156 96.0484 245.166 122.152 245.176 148.225C245.185 170.656 247.022 103.285 245.15 80.9327C244.814 76.9239 242.615 71.0414 244.196 66.973C245.586 63.3934 229.917 62.0994 233.758 62.0979C237.513 62.0964 250.806 62.0912 239.992 62.0954C238.496 62.096 234.56 62.9621 237.213 61.4866C240.502 59.6577 238.194 68.5658 238.098 69.6861C237.727 74.0125 237.83 78.3604 237.832 82.6975C237.834 87.8253 238.029 72.435 237.758 67.3144C237.65 65.2837 236.602 57.775 236.605 64.5364C236.607 69.3253 236.609 74.1142 236.61 78.903C236.612 82.4102 235.367 92.3815 237.224 89.4067C239.672 85.4873 238.016 75.1347 237.691 70.7706C237.597 69.506 235.875 56.7134 235.113 62.2329C233.587 73.2826 232.351 84.4963 233.568 95.6427C234.016 99.7562 234.815 103.968 235.669 97.2005C236.642 89.4873 237.656 81.9492 237.828 74.1589C237.943 68.9651 239.76 66.83 240.81 73.4122C241.792 79.5734 241.492 85.8995 241.495 92.1157C241.497 97.8001 242.652 80.7898 242.708 75.1057C242.718 74.0799 242.623 65.2161 242.706 71.0396C242.898 84.4235 243.937 97.7542 243.942 111.157C243.947 124.574 243.959 108 243.939 104.245C243.899 96.3298 243.739 88.4317 243.32 80.5268C243.274 79.6664 242.703 62.6829 242.707 73.9536C242.714 89.2915 242.688 104.63 242.726 119.968C242.738 124.779 242.742 129.591 242.799 134.402C242.845 138.201 241.333 149.009 243.346 145.787C246.135 141.319 243.386 123.691 243.132 119.561C242.714 112.753 241.912 104.382 241.09 97.4695C240.857 95.5073 240.611 89.7616 240.004 91.6419C238.219 97.1656 239.203 106.167 239.131 111.634C238.992 122.113 239.071 132.597 239.075 143.078C239.078 148.974 237.608 166.397 239.353 160.765C242.025 152.145 241.515 142.265 241.511 133.386C241.508 125.305 240.779 101.572 238.52 109.33C235.115 121.02 236.633 136.758 236.638 148.839C236.64 152.495 236.224 157.101 237.32 160.698C238.416 164.291 239.379 153.403 239.552 149.651C240.143 136.907 240.542 122.355 237.3 109.872C234.468 98.9673 234.806 132.292 234.467 143.554C234.373 146.691 232.033 175.614 236.649 176.894C239.52 177.69 241.342 147.556 241.381 146.329C241.595 139.484 241.447 132.642 241.508 125.796C241.535 122.85 241.733 122.583 242.186 125.999C244.294 141.913 243.725 158.056 244.916 174.045C244.967 174.73 245.203 176.763 245.255 176.078C245.776 169.274 246.481 162.489 246.941 155.679C247.254 151.049 247.487 146.424 247.614 141.787C247.74 137.18 247.617 151.003 247.619 155.611C247.621 159.388 247.634 175.899 247.627 175.399C247.447 163.503 247.958 150.592 245.783 138.873C243.937 128.927 244.041 159.051 243.965 169.166C243.944 171.9 243.971 185.422 243.967 174.723C243.965 168.566 243.907 162.413 243.147 156.291C242.684 152.567 241.566 142.161 239.89 145.517C237.857 149.585 239.192 157.938 239.354 162.12C239.406 163.449 241.131 182.418 240.983 167.947C240.974 167.131 240.54 147.823 238.535 148.296C235.984 148.897 235.932 171.992 238.545 172.76C240.568 173.354 240.53 154.334 240.435 153.31C239.459 142.808 235.853 164.164 235.832 165.916C235.816 167.191 235.553 168.683 236.308 169.711C238.043 172.076 237.944 164.031 238.134 161.104C238.299 158.556 238.361 155.997 238.266 153.446C238.152 150.364 237.57 147.773 236.911 152.769C236.174 158.348 234.017 174.146 237.392 169.643C240.52 165.468 239.142 159.333 239.419 154.123C239.836 146.273 239.844 139.555 239.545 131.76C239.234 123.633 237.403 115.377 237.909 107.229C238.171 103.013 239.058 99.0137 239.056 94.7596C239.053 86.8437 237.777 70.7588 244.67 66.2952C248.222 63.9945 251.995 62.3952 256.256 62.1568C269.228 61.431 257.253 64.7492 251.922 69.9517C246.944 74.8099 242.422 80.6443 239.866 87.1693C239.626 87.7826 239.644 89.6365 240.071 89.1345C248.191 79.574 230.658 98.1402 244.812 82.5592C249.608 77.2795 255.339 73.6267 261.952 71.032C265.018 69.8293 265.375 70.014 267.915 69.4032C268.442 69.2765 266.829 69.3615 266.289 69.4039C257.934 70.0599 247.67 73.9828 241.897 80.2563C240.418 81.8627 245.779 78.2527 247.656 77.1367C253.896 73.4253 259.74 72.0717 266.492 70.0137C268.68 69.347 262.192 68.2904 259.918 68.0511C255.874 67.6255 243.957 69.4615 247.72 67.9204C253.71 65.4669 273.198 65.6122 266.829 64.4567C260.835 63.3694 250.158 62.252 245.348 66.837C244.427 67.7144 247.836 67.9352 249.075 67.6488C254.472 66.4011 261.506 63.9262 266.965 66.2863C272.215 68.5564 266.894 68.661 265.068 68.4556C257.616 67.6173 251.436 70.3267 246.639 75.9851C243.462 79.7317 244.189 80.5188 247.792 77.8143C252.31 74.423 257.584 70.7337 263.443 70.6248C264.675 70.6019 271.778 72.447 268.661 71.1649C265.68 69.9386 256.979 66.3022 259.376 68.4579C262.752 71.4942 267.386 72.3379 270.493 76.0434C274.384 80.6844 276.868 88.0591 276.87 94.1347C276.87 94.8579 276.575 92.7137 276.327 92.0341C274.581 87.2373 271.941 82.5391 269.274 78.2124C268.851 77.5263 258.262 66.232 258.766 69.0003C259.604 73.5991 266.031 77.776 268.868 81.1266C271.287 83.9824 277.813 92.5861 275.651 96.9137C275.287 97.6423 275.155 95.3599 274.837 94.6099C272.81 89.8226 270.72 84.9566 268.123 80.4492C267.803 79.8948 256.058 63.8001 254.496 67.24C254.112 68.0868 265.541 77.9487 266.428 79.0268C270.712 84.2315 276.869 91.885 276.872 99.0817C276.874 103.877 274.846 89.7065 273.681 85.0552C273.561 84.5757 264.977 59.4171 261.814 63.8488C260.626 65.5137 270.355 74.8838 271.17 75.9076C275.575 81.4367 282.583 91.5493 280.396 99.2159C279.759 101.45 278.093 95.1577 277.276 92.9825C273.933 84.0787 270.793 74.7863 264.797 67.2359C262.932 64.8878 261.967 64.7762 263.848 67.4396C267.073 72.004 270.461 76.5282 272.325 81.8707C275.375 90.6124 274.609 100.575 270.235 108.707C266.235 116.142 267.078 109.819 267.116 104.914C267.155 99.9087 267.36 94.9289 267.72 89.9368C267.928 87.0468 266.451 79.8401 268.936 81.3299C272.649 83.5555 268.094 101.802 267.116 104.914C263.902 115.136 253.226 120.025 243.469 115.02C235.517 110.941 239.857 113.021 245.028 114.274C253.912 116.427 262.368 116.215 269.286 109.724C273.381 105.882 274.101 101.184 274.363 95.7621C274.4 94.9991 274.427 85.1863 274.429 90.0019C274.434 102.27 267.246 122.327 250.858 119.354C249.844 119.171 252.812 118.616 253.839 118.54C267.416 117.541 274.439 108.753 276.329 95.9646C277.184 90.173 274.669 95.7592 273.822 97.321C268.834 106.518 263.197 115.047 252.958 118.947C250.319 119.952 241.895 120.138 244.487 119.018C250.734 116.321 257.243 118.652 263.189 113.996C268.822 109.585 280.163 91.1152 274.155 83.4963C271.69 80.3704 270.51 90.5861 269.009 94.2734C265.23 103.56 260.081 112.402 249.229 113.798C246.104 114.2 239.515 114.813 240.012 111.701C240.154 110.808 257.773 108.043 258.985 107.492C266.476 104.087 271.365 98.3058 274.158 90.6797C275.085 88.1496 275.891 85.0045 275.442 82.2083C275.318 81.435 274.37 83.4209 274.155 84.174C270.218 97.9764 264.195 112.169 248.009 113.595C247.064 113.679 246.072 113.869 245.163 113.596C243.247 113.022 248.945 112.292 250.854 111.697C260.882 108.571 272.662 104.566 275.786 93.2542C276.327 91.2926 276.18 85.2329 275.512 87.1552C272.664 95.3534 271.248 102.99 265.492 109.997C262.735 113.351 251.476 120.247 255.058 117.794C261.368 113.473 268.988 109.776 275.655 105.994" stroke="white" stroke-width="3" stroke-linecap="round"/>
<path d="M298.824 86.4682C298.823 83.1799 299.965 80.13 300.311 76.8447C300.856 71.6843 299.586 56.9119 302.203 61.393C304.018 64.5026 301.536 74.3343 301.26 77.522C300.717 83.8041 300.116 90.0522 300.048 96.3617C299.919 108.27 301.161 91.7122 301.536 88.9068C303.487 74.3121 303.693 59.9496 303.687 45.2639C303.686 43.343 304.814 30.9601 304.905 39.2999C305.105 57.6483 302.719 75.7643 302.487 94.0567C302.433 98.3017 302.49 102.551 302.492 106.797C302.493 110.322 302.596 99.7464 302.759 96.2251C303.67 76.4592 304.143 56.7474 302.735 36.9966C302.583 34.8538 303.155 28.6801 301.511 26.8321C298.778 23.7596 301.26 35.0536 301.245 39.1658C301.17 59.779 299.882 80.3582 300.05 100.97C300.071 103.519 300.456 111.05 301.002 108.559C303.432 97.4649 302.026 84.164 302.478 72.9133C303.099 57.4696 304.472 11.1242 303.68 26.5601C302.502 49.5006 297.694 71.8384 297.608 95.0074C297.583 101.682 297.825 108.299 298.565 114.931C298.726 116.38 298.911 120.299 299.786 119.132C301.34 117.058 301.072 110.459 301.273 108.288C302.655 93.3621 302.519 78.3271 303.084 63.3579C303.522 51.7822 303.685 40.2423 303.681 28.6609C303.676 17.4115 303.737 51.1601 303.626 62.409C303.441 81.2834 300.486 101.395 303.107 120.215C304.008 126.686 303.863 124.679 304.326 118.723C305.688 101.2 304.023 83.5775 305.525 66.0677C305.69 64.1439 306.132 58.3764 306.133 60.3072C306.136 69.1261 305.92 77.9261 305.533 86.7366C304.914 100.859 304.935 114.959 304.94 129.091C304.946 143.529 306.468 100.213 305.872 85.7878C305.806 84.2018 301.715 55.5727 300.303 56.5146C297.975 58.0679 298.006 74.3042 297.871 75.8969C296.934 86.9606 296.039 98.2621 296.665 109.374C296.827 112.252 301.231 128.488 301.279 125.637C301.394 118.824 301.273 111.977 301 105.171C300.748 98.8613 301.781 88.4486 298.823 82.5377C296.329 77.5552 297.631 93.6372 297.61 99.2089C297.577 107.684 296.965 116.534 298.162 124.96C298.734 128.989 301.379 138.917 302.229 128.754C303.457 114.077 306.609 70.513 302.212 84.5694C299.357 93.6948 298.835 104.115 298.157 113.575C298.144 113.757 298.576 130.871 299.451 129.703C301.9 126.436 301.088 118.785 301.275 115.065C301.583 108.938 302.131 102.826 302.42 96.6996C302.673 91.348 303.08 89.2333 306.142 84.6356C309.798 79.1482 314.298 73.6325 319.554 69.586C321.949 67.7428 329.343 65.0023 323.62 69.5844C319.264 73.0723 315.588 77.3564 312.308 81.8547C308.755 86.7281 299.259 101.299 304.386 98.122C308.431 95.6159 310.024 90.4534 312.717 86.5305C316.489 81.0348 320.038 75.5692 324.57 70.6683C325.699 69.4468 330.709 67.071 327.822 68.8373C317.797 74.9688 309.677 81.9763 303.503 92.2266C303.197 92.7335 299.438 100.348 299.711 99.9535C302.626 95.7387 304.619 90.9279 307.499 86.6681C311.152 81.2631 315.211 77.564 321.251 75.0745C323.878 73.9916 329.77 71.4587 323.284 75.7513C315.3 81.0355 308.265 87.2037 301.877 94.328C298.774 97.7889 311.993 83.3802 312.444 82.9389C316.886 78.5897 332.053 68.5377 326.06 70.1933C319.571 71.9863 313.251 76.5942 308.038 80.7044C305.855 82.4264 317.21 74.1648 318.336 73.517C323.315 70.6512 328.548 68.4096 333.177 72.8334C336.576 76.0824 330.327 73.3928 329.45 73.1737C322.592 71.4621 328.861 79.2462 329.995 81.9833C332.977 89.1758 339.033 111.733 336.036 104.547C332.569 96.2371 331.639 86.9023 327.69 78.7313C323.587 70.2413 331.445 97.2293 332.648 106.582C332.668 106.737 334.326 131.151 334.146 123.523C333.768 107.534 332.4 91.2484 333.246 75.273C333.839 64.0589 337.111 97.4611 337.596 108.681C337.916 116.083 337.873 123.501 337.876 130.908C337.878 135.659 337.486 121.409 337.057 116.677C335.914 104.064 334.174 91.4963 333.247 78.8647C332.962 74.987 333.047 71.9814 335.28 77.7796C339.028 87.513 341.256 97.6589 342.475 108.001C342.798 110.748 343.523 119.449 343.7 122.638C343.773 123.949 344.304 127.55 343.431 126.569C340.308 123.059 340.554 113.301 340.036 109.222C338.841 99.8176 337.512 90.4728 335.688 81.1678C335.408 79.7396 334.891 72.4387 333.244 71.4103C332.516 70.9556 333.156 73.1317 333.245 73.9854C333.57 77.09 334.331 82.4872 334.74 85.2342C337 100.414 341.541 146.118 341.535 130.771C341.528 113.095 335.789 93.4254 331.078 76.5615C330.19 73.3848 329.971 65.7841 327.143 67.4822C324.638 68.9868 328.064 87.4784 328.304 89.3028C330.064 102.682 334.221 142.845 334.216 129.351C334.21 113.91 333.104 98.8013 330.606 83.5417C329.812 78.6917 327.551 61.6012 328.232 77.1047C328.769 89.3455 329.527 101.684 331.16 113.833C331.609 117.176 332.122 124.075 334.825 126.775C337.628 129.577 340.136 100.457 340.099 98.7177C339.946 91.3406 339.036 83.9702 336.025 77.1694C335.119 75.1242 332.4 69.7077 331.889 71.8852C330.106 79.4765 332.124 90.6709 332.577 98.1108C332.794 101.678 332.38 130.432 336.589 132.535C337.807 133.143 339.51 101.769 337.869 113.289" stroke="white" stroke-width="3" stroke-linecap="round"/>
<path d="M353.713 79.1277C353.719 94.6021 352.537 110.486 354.002 125.887C355.142 137.871 360.172 114.119 360.367 111.992C361.053 104.51 360.95 97.1151 360.358 89.629C360.083 86.1446 360.464 78.5018 358.048 75.3988C356.404 73.2859 356.959 80.6576 356.764 83.328C356.053 93.0544 355.932 102.862 356.437 112.604C356.508 113.988 358.587 135.264 360.374 129.002C364.323 115.159 364.589 99.3746 362.728 85.1554C360.075 64.8783 355.506 96.5864 355.484 101.49C355.448 109.133 356.281 116.84 357.39 124.395C357.403 124.485 358.911 134.783 360.442 131.035C365.567 118.494 364.065 99.7464 363.339 86.5783C363.213 84.3038 363.052 77.5169 359.811 76.6179C355.767 75.4963 354.197 90.8385 353.989 92.4099C353.789 93.9226 353.54 126.811 356.848 125.005C364.138 121.025 361.302 94.0999 360.764 87.2569C360.694 86.3649 360.386 79.0174 358.592 78.7191C356.981 78.4513 356.202 90.622 356.157 91.0537C355.315 99.1592 351.205 121.33 358.001 128.122C359.491 129.61 360.127 124.376 360.439 122.293C362.14 110.924 362.241 99.0596 360.764 87.6635C359.987 81.6669 358.639 76.8381 358.595 86.9867C358.551 97.0001 359.695 127.021 359.691 117.007C359.687 106.42 358.362 95.6891 357.442 85.1575C357.204 82.4233 356.963 79.6893 356.694 76.9579C356.6 76.0071 357.208 73.6842 356.354 74.1119C355.465 74.5568 356.377 76.1005 356.423 77.0936C356.559 80.0313 356.722 82.9677 356.901 85.9031C357.681 98.7369 358.61 111.587 359.762 124.394C359.933 126.295 360.099 129.245 360.44 125.342C361.182 116.85 361.014 108.238 361.04 99.726C361.06 92.859 360.754 72.2633 361.032 79.1248C361.494 90.5696 362.314 101.996 363.214 113.414C363.648 118.924 365.106 135.312 365.66 129.813C366.948 117.024 365.788 103.645 365.306 90.8468C365.037 83.7221 368.549 73.0228 359.742 73.0262C351.138 73.0296 357.181 72.8271 361.707 74.2453C370.028 76.8522 357.759 72.4136 355.404 71.9437C354.466 71.7564 354.939 94.1267 354.94 97.1533C354.944 108.587 352.536 122.107 355.022 133.273C355.397 134.96 363.289 135.235 364.578 135.235C366.013 135.234 361.79 134.533 360.376 134.288C356.549 133.623 361.753 134.016 362.748 134.016C368.551 134.013 359.355 131.577 361.323 131.576C369.652 131.573 353.175 126.931 359.424 125.749C360.621 125.523 364.763 126.17 365.658 125.205C367.865 122.826 365.423 110.316 365.245 107.856C365 104.491 361.192 85.1665 364.698 97.4205" stroke="white" stroke-width="3" stroke-linecap="round"/>
<path d="M356.146 60.8296C359.912 67.9362 364.596 63.817 365.632 57.4375C366.973 49.1795 358.146 55.7349 359.941 62.4545C361.687 68.9898 374.608 55.3412 363.461 52.5591C356.299 50.7716 355.432 62.6439 362.314 63.6734C371.554 65.0557 365.238 44.8447 357.497 49.5797C353.341 52.1218 356.003 58.1671 359.33 59.8796C368.321 64.5069 363.258 49.5417 359.396 53.9161C355.781 58.0101 362.344 62.4151 363.869 56.7605C364.791 53.3454 361.694 59.2106 362.175 56.5579C362.663 53.8693 360.748 59.6368 361.565 55.2706C362.585 49.8173 369.911 40.7979 373.218 47.405" stroke="white" stroke-width="3" stroke-linecap="round"/>
<path d="M418.362 75.4427C419.905 75.2216 417.737 72.4149 417.14 71.7838C414.824 69.3334 411.693 68.2425 408.329 68.1278C401.217 67.8854 398.606 70.2351 394.575 76.062C388.973 84.1616 385.079 98.2233 385.507 107.781C386.402 127.729 407.516 144.169 427.603 139.818C431.409 138.993 419.812 137.466 419.064 137.382C410.377 136.398 400.277 134.953 394.257 127.904C384.802 116.833 387.868 98.1596 391.801 85.6183C394.46 77.1386 399.2 69.3846 408.193 66.637C414.179 64.8081 433.089 68.9312 426.83 68.9337C423.817 68.9349 419.18 65.0069 416.256 64.1264C408.492 61.7882 402.016 64.2837 396.877 70.5042C393.538 74.547 387.599 89.3006 389.632 84.4671C392.59 77.4347 396.348 69.2292 404.127 66.5031C409.747 64.5336 416.196 65.0706 421.882 66.3605C423.082 66.6327 424.635 67.4717 422.966 66.3601C417.537 62.7438 422.922 65.7798 425.406 67.3756C426.114 67.8305 412.886 59.3681 420.324 67.6487C428.718 76.9947 423.46 71.0224 418.764 65.5486C417.516 64.093 428.728 80.2457 418.427 68.666C405.586 54.232 426.974 84.4402 417.547 72.8679C416.874 72.0415 410.996 63.5904 412.394 65.9577C414.836 70.091 416.95 74.3783 419.04 78.6953C420.733 82.1904 415.298 71.8884 413.344 68.5325C411.71 65.7264 408.839 61.1621 411.175 67.8556C412.655 72.0964 419.573 85.2905 413.211 74.9026C412.207 73.2632 409.143 69.7817 409.142 67.7209C409.141 64.7927 412.854 72.2553 414.566 74.631C417.807 79.1277 425.77 76.2181 428.054 79.6404C428.206 79.8686 423.234 59.5678 423.237 66.9021C423.239 70.0029 423.543 74.9934 424.733 77.8798C425.279 79.2042 419.963 73.913 419.038 72.4607C418.292 71.2902 418.875 68.6844 417.613 68.1242C413.615 66.3492 410.039 64.8198 405.889 67.1801C404.93 67.7252 397.252 72.7755 399.115 74.6371C399.469 74.9909 413.122 71.8183 414.836 71.7847C419.625 71.6907 408.889 71.9532 408.06 72.0584C400.4 73.03 395.163 76.6939 389.902 81.9596C386.287 85.5771 396.912 74.4149 401.079 71.4513C408.406 66.241 405.022 67.9913 400.47 72.197C391.048 80.9009 387.609 94.2726 386.727 106.696C386.318 112.445 388.181 95.3452 388.416 94.2938C391.197 81.8323 395.349 73.3319 405.075 65.2829C410.729 60.6038 404.642 67.0694 403.179 68.672C394.797 77.8517 391.042 93.1108 389.369 105.136C387.305 119.969 392.113 89.0347 392.479 87.6511C394.456 80.1853 396.861 70.9063 402.297 65.0129C402.982 64.2697 406.12 61.8515 404.329 64.8088C398.848 73.8614 395.371 83.7564 393.363 94.1564C393.111 95.4605 389.13 120.692 393.712 121.263C394.747 121.392 393.599 119.177 393.44 118.146C392.761 113.744 392.272 111.166 391.809 106.491C391.015 98.4713 389.546 88.4487 393.29 80.874C394.461 78.5035 398.035 74.5016 396.542 80.3306C393.458 92.3811 389.893 104.539 393.236 116.994C395.033 123.685 398.965 130.634 404.154 135.287C404.45 135.552 409.728 138.466 409.238 137.928C405.186 133.474 399.562 130.296 395.341 125.871C384.569 114.578 407.25 127.525 408.488 128.102C421.237 134.037 401.599 124.101 398.795 122.21C398.582 122.066 411.046 124.231 413.299 124.847C417.711 126.053 430.912 129.763 426.447 128.772C417.447 126.776 408.679 124.104 399.541 122.616C389.879 121.043 402.702 125.24 403.473 125.461C409.916 127.31 418.611 129.98 425.43 128.84C430.77 127.948 415.048 125.66 409.707 124.781C409.607 124.764 391.795 121.995 401.304 125.597C409.462 128.688 419.683 131.988 428.549 131.279C432.939 130.928 421.045 126.319 416.755 125.32C414.664 124.833 399.976 123.909 400.355 124.107C408.308 128.269 417.894 128.535 426.448 130.67C432.912 132.283 413.298 128.517 406.726 127.425C406.395 127.37 388.169 123.847 399.272 128.648C406.057 131.581 414.357 134.031 421.841 133.653C424.646 133.512 406.993 128.602 405.439 128.306C389.445 125.266 407.951 130.271 410.184 130.744C411.422 131.006 422.923 132.743 422.111 132.569C419.521 132.015 416.918 131.517 414.317 131.013C412.389 130.64 407.478 128.45 408.489 130.135C410.449 133.398 423.457 133.979 427.195 134.939C430.878 135.884 419.707 133.602 415.945 133.046C406.69 131.679 412.693 134.301 417.301 135.62C436.316 141.065 417.797 132.329 410.251 130.744C402.869 129.193 439.358 138.663 432.007 136.97C429.317 136.35 418.385 133.659 418.386 137.653" stroke="white" stroke-width="3" stroke-linecap="round"/>
</svg>
