<svg width="228" height="37" viewBox="0 0 228 37" fill="none" xmlns="http://www.w3.org/2000/svg">
<g clip-path="url(#clip0_117_2)">
<path d="M6.18905 8.85776C6.32178 15.2289 6.97497 21.6668 7.55178 28.0117C7.92648 32.1333 7.55178 19.7344 7.55178 15.5957C7.55178 14.6226 7.55178 5.91215 7.55178 9.23629C7.55178 15.3812 7.55178 21.5261 7.55178 27.671C7.55178 31.2357 7.01624 20.5593 6.90827 16.9963C6.8065 13.6379 7.00363 5.19352 6.34046 13.4002C6.20642 15.059 4.94131 26.8558 6.34046 27.6331C7.03488 28.0189 10.7121 26.7058 11.5643 26.6111C16.8738 26.0211 4.21653 27.1565 7.55178 27.2546C9.52916 27.3128 11.5556 27.337 13.5326 27.2546C14.5207 27.2134 10.1214 26.5975 9.67158 26.4975C7.22231 25.9533 8.10213 22.6569 6.87041 21.4252C6.66617 21.2209 5.958 21.1687 5.6591 19.7596C5.18645 17.5314 6.53899 19.0025 7.2111 19.0025C8.16656 19.0025 9.419 18.3969 10.6179 18.3969C14.7778 18.3969 10.4705 16.6184 9.06592 17.8669C8.43819 18.4249 16.321 18.3969 13.9869 18.3969C10.2028 18.3969 8.95271 18.89 7.70319 15.1415C7.29335 13.9119 6.9072 9.53912 8.61168 9.53912C9.77358 9.53912 14.1609 8.88756 13.6841 8.85776C11.8821 8.74513 4.72977 8.17639 10.2772 8.17639C11.5221 8.17639 15.1939 8.85776 13.949 8.85776C12.6978 8.85776 13.0027 9.93934 13.0027 10.9019" stroke="white" stroke-linecap="round"/>
<path d="M19.1351 8.17639C19.1351 13.8726 20.4979 30.9067 20.4979 25.2105C20.4979 20.3148 20.4979 5.62758 20.4979 10.5233C20.4979 16.5589 21.1792 34.653 21.1792 28.6173C21.1792 22.1378 21.3497 15.6368 21.1792 9.16059C21.1073 6.42771 20.3869 11.3796 20.3464 11.7346C19.8853 15.7824 19.1351 19.6046 19.1351 23.6964C19.1351 26.1314 19.1795 25.5577 20.3464 26.7247C20.5499 26.9281 21.1065 28.9202 21.1792 27.1032C21.216 26.1845 21.2277 25.2093 20.3464 24.6806C19.3693 24.0943 19.2454 26.776 18.9837 27.1032C17.6493 28.7713 19.8165 28.6286 19.8165 26.5732" stroke="white" stroke-linecap="round"/>
<path d="M27.3116 23.1664C27.3116 14.2005 27.8906 33.3081 29.015 25.4376C29.1815 24.2718 29.3557 15.6001 29.3557 20.7059C29.3557 23.3178 29.3557 25.9297 29.3557 28.5416C29.3557 30.0557 29.3557 25.5133 29.3557 23.9991C29.3557 23.3351 28.7455 19.0029 28.6743 21.4251C28.6478 22.328 29.28 27.5002 29.28 25.8161C29.28 22.3469 25.6313 22.5312 27.3116 25.8918" stroke="white" stroke-linecap="round"/>
<path d="M27.9932 14.3087C29.107 14.1695 30.2839 10.8801 27.6904 11.6211C25.4545 12.2599 29.3559 16.6257 29.3559 12.946C29.3559 10.0138 25.133 14.9821 28.3339 14.2708C29.0731 14.1066 29.9616 12.6695 29.9616 11.9239C29.9616 10.0796 26.5879 11.4189 27.4632 12.7945C29.0907 15.3519 31.517 10.9019 29.0152 10.9019C27.8854 10.9019 28.1952 12.1889 27.6525 12.1889C26.8249 12.1889 28.5725 9.84794 28.6746 11.5832C28.7851 13.4625 28.6746 16.0643 28.6746 12.6053C28.6746 10.5606 27.5432 12.9395 26.6305 14.3087" stroke="white" stroke-linecap="round"/>
<path d="M42.9829 13.6273C40.6426 13.3347 39.7081 11.0727 37.0021 13.7787C35.5342 15.2465 36.0131 18.2517 37.8727 19.0782C40.8768 20.4134 45.8203 17.4718 47.4497 21.2737C49.3806 25.7793 45.6503 28.1559 41.9609 28.958C40.728 29.226 39.1511 29.5449 37.8727 29.2608C37.1931 29.1098 35.9632 27.3825 36.5478 27.6331C39.9951 29.1105 42.191 31.5515 46.0869 28.7687C53.1885 23.6962 42.8506 21.1223 38.8947 21.1223C37.1556 21.1223 36.9687 18.4636 37.6834 17.0341C38.6678 15.0655 44.7195 16.2302 41.2417 14.6493C40.1836 14.1684 34.1731 14.9737 36.3207 16.8827C36.7258 17.2427 38.4002 15.7211 39.0462 15.6714C41.1144 15.5123 40.6392 14.99 38.8947 14.99C34.7476 14.99 34.5142 20.0195 38.6298 20.7816C40.4986 21.1277 45.7604 20.1901 47.2225 21.6522C48.483 22.9127 47.273 26.8256 46.0869 24.4534C45.6613 23.6021 46.1695 21.8436 45.3677 22.485C44.2458 23.3825 45.6201 23.8478 46.3898 23.8478" stroke="white" stroke-linecap="round"/>
<path d="M51.1593 22.4851C53.7094 22.4851 58.3252 18.3707 55.7774 15.8229C53.1689 13.2144 52.1235 21.8239 53.9226 23.8479C55.3423 25.445 57.2424 26.56 59.3356 25.5134C60.2417 25.0604 62.0026 23.6021 60.017 23.8857C55.4035 24.5448 52.6954 22.0406 52.522 17.1856C52.2488 9.53671 59.889 15.9831 56.4588 18.3969C55.1452 19.3213 52.563 21.4525 55.3989 19.4568C56.8819 18.4133 58.769 15.8518 57.5944 14.0059C56.6207 12.4758 55.2893 12.2646 53.6198 12.2646C52.0133 12.2646 56.876 13.5533 57.5944 14.9901C58.5214 16.8441 56.6102 21.4253 56.6102 19.0783" stroke="white" stroke-linecap="round"/>
<path d="M61.3797 20.4409C62.8383 19.1444 63.637 19.8632 64.9379 18.094C65.8769 16.817 67.7911 14.9664 66.3006 13.4759C62.6786 9.85378 62.8875 21.3247 63.9537 23.1664C66.3666 27.3341 76.0155 21.1244 68.7233 23.015C66.6773 23.5454 64 19.8404 63.5752 18.094C63.0252 15.833 65.411 8.93683 68.4961 12.3024C70.5717 14.5666 68.7137 16.0038 66.8306 17.6776C66.1578 18.2757 63.6213 19.0782 64.5215 19.0782C65.6 19.0782 66.139 18.4071 66.8684 17.6776C67.528 17.0181 71.1479 13.3905 69.1775 12.2645C68.1399 11.6716 69.8041 13.7204 69.5182 15.2928C69.5167 15.3009 60.5752 23.8477 66.4142 23.8477C66.9603 23.8477 65.4582 23.2486 65.165 22.7878C64.7385 22.1176 64.3175 20.8854 64.143 20.1002C63.6934 18.077 64.1051 22.2347 64.1051 21.1223" stroke="white" stroke-linecap="round"/>
<path d="M72.963 15.6715C75.08 13.2898 75.3478 20.4234 76.067 19.6082C76.8288 18.7449 75.5783 13.8721 74.4772 13.4002C73.3795 12.9298 75.0485 15.7244 75.4614 16.8449C76.2307 18.933 77.1242 20.9492 78.2625 22.8637C78.4082 23.1086 81.0498 26.9223 80.1552 24.7563C78.7397 21.3294 76.6402 18.018 74.6286 14.9144C72.8088 12.1067 76.1787 18.6473 76.3698 19.0783C76.5568 19.4999 80.2025 26.5143 80.458 25.1727C81.3148 20.6747 81.5262 16.0465 82.4264 11.5454C82.9987 8.68422 82.0465 17.3822 81.5179 20.2518C80.3549 26.5654 81.674 15.4769 81.8208 14.1195C82.6747 6.2208 81.7528 20.1976 81.5179 21.8416C81.2662 23.6039 81.4612 25.3473 79.5117 24.2642C78.8051 23.8717 79.3087 24.9766 79.7767 25.2106" stroke="white" stroke-linecap="round"/>
<path d="M92.7229 19.0781C92.582 17.8101 91.5666 16.1816 90.376 15.6713C86.0816 13.8309 85.8099 21.4782 85.9471 23.8098C86.2813 29.4916 92.7617 28.4278 94.2749 23.772C95.6744 19.4657 90.8372 11.0043 89.3161 18.0182C88.9001 19.9361 87.7412 22.8757 88.4454 24.8319C89.2773 27.1426 91.8247 27.0122 93.1014 25.1347C94.6971 22.7882 95.1933 19.0614 93.9721 16.4662C92.7498 13.8688 90.1324 13.5943 88.7104 16.2012C86.392 20.4516 88.6836 30.3316 93.2528 23.1663C94.3905 21.3822 95.7012 18.5618 94.6534 16.4662C93.3785 13.9163 90.5806 14.6913 89.0511 16.5041C87.5641 18.2664 85.4816 22.4355 86.8177 24.7562C89.1956 28.8862 94.26 19.5231 94.8048 18.0182C95.63 15.7392 94.8881 13.4091 95.9026 16.6555C96.7292 19.3006 98 21.7588 99.2337 24.2262C99.7216 25.202 96.7486 17.3181 95.9026 15.747C95.8388 15.6285 94.5759 12.2718 94.8427 14.0057C95.4878 18.1992 96.1202 23.1721 98.136 26.9517C100.692 31.7434 99.5274 25.5045 98.4388 23.4691C97.1179 20.9996 95.7023 18.5133 94.237 16.1255C92.5643 13.3996 95.6342 20.3725 95.7512 20.5923C96.5166 22.0303 98.5855 27.2153 100.445 27.7466C101.255 27.9779 99.9796 26.1195 99.6123 25.3618C98.6119 23.2985 97.6086 21.2416 96.6597 19.1538C95.9121 17.5092 95.9613 19.415 95.4484 20.4408" stroke="white" stroke-linecap="round"/>
<path d="M112.673 26.5732C112.673 23.2346 112.038 20.0127 111.65 16.6934C111.506 15.4546 108.965 6.51264 112.029 9.57696C115.197 12.7449 117.148 17.0666 119.789 20.6681C121.248 22.6572 122.57 15.9975 122.855 14.9522C123.531 12.4736 124.655 9.35023 124.937 6.81365C125.019 6.07805 128.445 15.898 128.874 17.4127C129.851 20.867 131.497 26.5528 128.912 19.0404C127.472 14.8556 126.591 10.2989 124.937 6.20799C123.636 2.98828 121.118 16.0851 121 17.1098C120.511 21.3671 119.348 18.6811 118.086 16.3149C116.69 13.6983 114.439 8.81269 111.726 7.30575C111.258 7.04572 112.905 15.616 112.975 16.1256C113.406 19.2636 113.354 22.4299 113.354 25.589C113.354 27.2407 113.354 26.7545 113.354 25.4376C113.354 21.3747 113.354 17.3117 113.354 13.2488C113.354 12.9514 113.495 8.48748 112.824 9.00916C110.865 10.5331 110.889 15.8307 111.991 13.6273" stroke="white" stroke-linecap="round"/>
<path d="M141.29 17.7154C141.29 14.7552 137.883 11.3813 134.666 12.4538C130.614 13.8043 132.109 22.3637 135.007 24.2262C137.985 26.1409 141.786 17.2383 139.852 15.0278C134.715 9.15747 129.456 22.1327 135.953 23.1663C140.81 23.939 142.321 16.8576 142.539 13.3623C142.713 10.5895 142.06 16.232 142.123 17.0341C142.293 19.1969 141.886 23.7789 143.334 25.589C144.179 26.6452 142.689 19.9612 142.615 19.6838C141.926 17.1004 140.7 9.54229 139.965 12.1131C139.114 15.0912 140.128 21.3434 141.442 24.0748C143.353 28.0498 144.042 17.5056 141.29 15.6713" stroke="white" stroke-linecap="round"/>
<path d="M147.422 12.2646C146.472 13.452 146.913 14.7148 147.157 16.1257C147.46 17.8722 149.229 29.0459 148.406 21.8794C148.32 21.1261 147.166 11.8503 147.574 17.1099C147.829 20.4067 149.934 30.1244 149.315 26.8761C148.729 23.7999 147.875 20.7516 147.498 17.6398C147.017 13.6747 148.377 21.7409 148.444 22.0308C149.717 27.5469 149.157 25.8897 149.958 21.5766C150.45 18.9293 151.556 12.4897 154.879 11.6589C155.172 11.5858 156.595 11.3373 155.447 11.5832C152.024 12.3168 149.809 17.9326 148.709 20.7438C147.436 23.9965 148.72 21.3362 149.239 19.9867C150.546 16.5882 153.18 14.1096 156.356 12.416C156.926 12.1117 154.065 14.4715 153.782 14.7629C151.629 16.9733 149.767 19.2375 148.785 22.1822C148.434 23.2356 149.356 19.8033 148.785 18.8511C148.149 17.7917 148.104 19.4129 148.104 19.7596" stroke="white" stroke-linecap="round"/>
<path d="M162.412 20.4409C161.655 20.3463 161.537 19.5941 161.049 19.0782C159.143 17.0596 156.842 21.4505 156.128 22.9393C154.732 25.8541 157.882 27.5673 160.217 25.8161C162.699 23.9544 163.81 18.4021 159.687 17.7912C156.486 17.317 154.5 20.1547 154.387 23.015C154.224 27.151 159.939 27.3532 161.655 24.2263C162.607 22.4915 162.345 16.9695 159.232 17.4883C156.403 17.9599 153.633 23.2323 156.885 24.9834C160.08 26.7036 162.712 22.7255 162.791 20.0624C162.816 19.2088 161.652 15.8296 161.731 18.4725C161.887 23.6973 163.732 28.567 164.835 33.614C165.205 35.309 165.712 38.5112 163.472 39.2163C161.733 39.7637 157.581 39.067 156.431 37.475C155.977 36.8455 157.2 36.5444 157.491 36.9451C158.409 38.2068 156.796 39.9111 158.627 41.4118C161.417 43.6996 163.699 41.2921 163.699 38.3835C163.699 34.0912 162.66 29.6846 162.109 25.4376C161.44 20.2731 161.831 22.5915 162.45 26.4596C162.98 29.7716 166.084 40.431 160.065 41.5254C157.385 42.0126 157.301 40.3718 156.62 38.1943C155.606 34.9479 160.85 31.7274 162.639 29.4501C164.479 27.1087 158.963 34.2717 158.021 37.0965C157.649 38.2125 157.643 41.3053 157.643 38.4971C157.643 36.5513 158.677 34.489 159.346 32.7055C159.532 32.2096 160.148 29.6364 160.709 29.4122C161.208 29.2124 161.249 30.4208 161.731 30.6614" stroke="white" stroke-linecap="round"/>
<path d="M173.314 19.7595C173.314 17.5701 171.502 15.1277 168.885 15.7092C164.837 16.6088 167.056 23.8124 168.204 25.854C171.693 32.0565 176.85 15.2307 170.551 15.8606C166.713 16.2444 166.237 21.3226 169.68 22.7878C174.308 24.7573 174.706 18.1834 173.011 15.5199C172.738 15.0904 172.969 21.775 173.314 22.8635C173.71 24.1136 176.794 29.2249 175.888 25.059C175.497 23.2581 174.401 21.6143 173.466 20.0624C172.929 19.1724 171.951 16.2976 171.951 17.3369C171.951 18.7406 174.144 25.4103 175.207 26.1189C177.106 27.385 173.9 21.741 173.087 19.6081C171.693 15.9476 171.878 20.0606 171.497 21.5008C171.097 23.0162 169.868 26.0601 168.166 23.6963C168.141 23.6613 166.916 20.8132 166.652 21.5765C166.219 22.8276 167.701 30.6908 169.226 28.8444C169.957 27.9599 169.255 25.9063 170.589 26.5732" stroke="white" stroke-linecap="round"/>
<path d="M179.446 17.0342C179.446 19.7871 179.203 23.2206 180.506 25.7405C181.913 28.461 180.817 19.4644 179.787 16.5799C178.626 13.329 181.162 23.3458 181.869 26.7247C182.757 30.9673 181.627 22.9526 181.453 22.1823C181.236 21.226 179.679 16.2586 179.863 16.8828C180.765 19.9509 182.028 22.8777 182.172 26.119C182.267 28.2524 182.468 24.1644 182.588 23.6585C183.107 21.4669 183.62 16.1368 186.109 15.1415C187.059 14.7611 186.86 15.4897 186.26 15.8229C183.98 17.0896 183.119 19.2515 182.588 21.728C181.887 24.999 181.812 25.2789 182.323 21.8037C182.62 19.7848 183.706 16.5382 185.881 15.7471C188.091 14.9436 187.352 16.877 184.746 16.2014C182.296 15.5664 181.49 17.7438 181.49 19.7596" stroke="white" stroke-linecap="round"/>
<path d="M191.711 16.3528C189.954 16.792 191.024 24.91 191.37 26.1569C192.144 28.9431 191.757 20.3798 191.711 17.4884C191.616 11.6263 191.623 28.9218 191.711 25.5891C191.794 22.4357 191.711 12.9712 191.711 16.1257C191.711 19.2275 191.64 22.3369 191.711 25.4377C191.78 28.475 192.886 15.3656 191.029 19.0783" stroke="white" stroke-linecap="round"/>
<path d="M190.348 6.81372C190.348 7.59065 189.803 11.6199 191.333 9.50133C191.751 8.92163 192.023 7.42777 191.03 8.47928C190.582 8.95322 190.021 11.0018 191.37 10.372C192.399 9.89185 192.466 7.1598 191.37 7.6465C190.78 7.90899 189.914 10.1386 190.803 10.4477C191.836 10.8072 192.848 8.78256 191.711 8.32787C190.932 8.01623 191.227 8.81201 191.863 9.00923C194.205 9.73628 196.201 9.28041 198.525 8.85782" stroke="white" stroke-linecap="round"/>
<path d="M200.569 0C200.569 2.62446 200.56 5.24915 200.569 7.87355C200.576 9.87246 199.138 25.0082 201.553 26.0433C201.864 26.1764 201.422 18.7584 201.402 18.3969C201.115 13.3402 200.848 8.27658 200.607 3.21756C200.509 1.1568 200.73 2.24776 200.91 3.21756C201.427 6.01191 201.25 8.9077 201.25 11.7346C201.25 15.4121 200.959 19.2656 201.629 22.9014C202.029 25.0758 202.584 24.8775 202.613 22.8636C202.709 16.1498 203.268 8.86441 201.629 2.30907C200.471 -2.32118 201.25 6.05983 201.25 7.23004C201.25 10.6691 199.546 19.7277 201.932 22.5607C202.619 23.3769 202.526 18.9519 202.462 18.6997C202.046 17.0832 197.348 15.0657 199.017 15.0657C201.092 15.0657 203.344 15.6714 205.528 15.6714C208.114 15.6714 200.354 15.6714 197.768 15.6714C193.823 15.6714 201.941 16.3219 202.992 16.3528C203.481 16.3672 198.104 15.2071 196.67 15.0279C194.076 14.7037 201.957 14.7514 204.506 15.3307C206.796 15.8512 203.468 15.3227 202.462 14.4601C201.294 13.4593 199.888 12.6508 199.888 14.3087" stroke="white" stroke-linecap="round"/>
<path d="M215.559 17.7156C215.464 16.8616 214.878 16.1112 214.045 15.8229C211.326 14.8817 210.545 20.7177 210.487 22.3337C210.316 27.0569 215.634 23.7405 216.467 21.2738C217.934 16.9296 212.933 14.1838 209.616 16.9206C207.129 18.9723 207.254 25.0181 211.509 24.7942C216.26 24.5441 216.92 17.7497 214.045 15.0658C210.372 11.6381 207.875 19.2971 209.275 21.9552C212.668 28.394 219.019 13.9459 211.509 15.8986C208.34 16.7224 206.652 22.7948 210.827 23.2422C214.125 23.5955 216.607 18.0592 216.732 15.4822C216.789 14.3293 214.845 10.9225 214.991 13.4003C215.226 17.3939 218.587 28.9582 218.133 24.9835C217.945 23.3398 216.452 11.3323 215.029 11.129C213.178 10.8646 215.801 14.7937 216.354 16.58C217.252 19.4811 219.881 28.1683 219.382 25.1727C219.13 23.6602 214.878 11.1488 214.878 17.7156" stroke="white" stroke-linecap="round"/>
</g>
<defs>
<clipPath id="clip0_117_2">
<rect width="228" height="36.1463" fill="white"/>
</clipPath>
</defs>
</svg>
