<svg width="152" height="32" viewBox="0 0 152 32" fill="none" xmlns="http://www.w3.org/2000/svg">
<path d="M1.4385 7.09259C1.53117 11.5407 1.98721 16.0355 2.38992 20.4653C2.65152 23.3429 2.38992 14.6863 2.38992 11.7968C2.38992 11.1175 2.38992 5.03606 2.38992 7.35687C2.38992 11.6471 2.38992 15.9372 2.38992 20.2274C2.38992 22.7162 2.01602 15.2623 1.94064 12.7747C1.86959 10.43 2.00722 4.53434 1.54422 10.264C1.45063 11.4221 0.567371 19.6583 1.54422 20.201C2.02904 20.4703 4.59635 19.5535 5.19131 19.4874C8.89829 19.0755 0.0613513 19.8682 2.38992 19.9367C3.77047 19.9773 5.18524 19.9942 6.56558 19.9367C7.25539 19.908 4.18391 19.4779 3.8699 19.4081C2.15989 19.0281 2.77416 16.7267 1.91421 15.8668C1.77161 15.7242 1.27719 15.6877 1.06851 14.7039C0.738521 13.1483 1.68282 14.1754 2.15206 14.1754C2.81914 14.1754 3.69356 13.7525 4.5306 13.7525C7.43488 13.7525 4.42768 12.5108 3.44705 13.3825C3.00879 13.7721 8.51234 13.7525 6.88271 13.7525C4.24076 13.7525 3.368 14.0968 2.49563 11.4797C2.20949 10.6213 1.93989 7.5683 3.12991 7.5683C3.94111 7.5683 7.0042 7.1134 6.67129 7.09259C5.41321 7.01396 0.419678 6.61688 4.29275 6.61688C5.16185 6.61688 7.72539 7.09259 6.85629 7.09259C5.98274 7.09259 6.19558 7.84772 6.19558 8.51971" stroke="white" stroke-linecap="round"/>
<path d="M10.4772 6.61688C10.4772 10.5938 11.4286 22.4865 11.4286 18.5096C11.4286 15.0915 11.4286 4.83738 11.4286 8.25543C11.4286 12.4693 11.9043 25.102 11.9043 20.8881C11.9043 16.3643 12.0233 11.8255 11.9043 7.30402C11.8541 5.39601 11.3511 8.85329 11.3229 9.10113C11.0009 11.9272 10.4772 14.5957 10.4772 17.4524C10.4772 19.1525 10.5082 18.752 11.3229 19.5667C11.4649 19.7087 11.8536 21.0996 11.9043 19.831C11.93 19.1896 11.9382 18.5087 11.3229 18.1396C10.6407 17.7303 10.5542 19.6026 10.3715 19.831C9.43982 20.9956 10.9529 20.896 10.9529 19.461" stroke="white" stroke-linecap="round"/>
<path d="M16.1857 17.0824C16.1857 10.8227 16.59 24.163 17.375 18.6681C17.4913 17.8542 17.6129 11.7999 17.6129 15.3645C17.6129 17.1881 17.6129 19.0116 17.6129 20.8352C17.6129 21.8923 17.6129 18.7209 17.6129 17.6638C17.6129 17.2002 17.1869 14.1756 17.1371 15.8667C17.1186 16.4971 17.56 20.1081 17.56 18.9323C17.56 16.5103 15.0126 16.6389 16.1857 18.9852" stroke="white" stroke-linecap="round"/>
<path d="M16.6615 10.8983C17.4391 10.801 18.2608 8.50451 16.4501 9.02185C14.8891 9.46785 17.6129 12.516 17.6129 9.94684C17.6129 7.89967 14.6646 11.3684 16.8994 10.8718C17.4154 10.7571 18.0358 9.75383 18.0358 9.23328C18.0358 7.94565 15.6803 8.88071 16.2915 9.84112C17.4277 11.6266 19.1217 8.51971 17.3751 8.51971C16.5862 8.51971 16.8025 9.41827 16.4236 9.41827C15.8458 9.41827 17.0659 7.7839 17.1372 8.99542C17.2144 10.3075 17.1372 12.124 17.1372 9.70898C17.1372 8.28144 16.3473 9.94236 15.7101 10.8983" stroke="white" stroke-linecap="round"/>
<path d="M27.1269 10.4225C25.4929 10.2183 24.8405 8.63901 22.9512 10.5283C21.9264 11.5531 22.2607 13.6512 23.5591 14.2282C25.6565 15.1604 29.1078 13.1067 30.2454 15.761C31.5936 18.9067 28.9891 20.566 26.4133 21.126C25.5526 21.3131 24.4516 21.5357 23.5591 21.3374C23.0846 21.232 22.2259 20.026 22.6341 20.201C25.0408 21.2325 26.574 22.9367 29.294 20.9938C34.2521 17.4523 27.0345 15.6553 24.2726 15.6553C23.0584 15.6553 22.9279 13.7991 23.4269 12.8011C24.1141 11.4266 28.3393 12.2398 25.9112 11.1361C25.1724 10.8003 20.9761 11.3626 22.4755 12.6954C22.7583 12.9468 23.9274 11.8844 24.3783 11.8497C25.8223 11.7386 25.4906 11.374 24.2726 11.374C21.3773 11.374 21.2143 14.8854 24.0876 15.4175C25.3924 15.6591 29.066 15.0045 30.0868 16.0253C30.9669 16.9054 30.1221 19.6372 29.294 17.981C28.9968 17.3866 29.3516 16.1589 28.7918 16.6067C28.0086 17.2334 28.9681 17.5582 29.5054 17.5582" stroke="white" stroke-linecap="round"/>
<path d="M32.8354 16.6068C34.6158 16.6068 37.8384 13.7342 36.0596 11.9554C34.2384 10.1343 33.5085 16.1451 34.7646 17.5582C35.7558 18.6733 37.0824 19.4518 38.5439 18.7211C39.1764 18.4048 40.4058 17.3866 39.0196 17.5847C35.7986 18.0448 33.9078 16.2965 33.7868 12.9069C33.5961 7.56663 38.9302 12.0673 36.5353 13.7526C35.6182 14.3979 33.8154 15.8858 35.7953 14.4926C36.8307 13.764 38.1483 11.9756 37.3282 10.6869C36.6483 9.61859 35.7188 9.47119 34.5532 9.47119C33.4316 9.47119 36.8266 10.3709 37.3282 11.374C37.9753 12.6684 36.641 15.8669 36.641 14.2283" stroke="white" stroke-linecap="round"/>
<path d="M39.971 15.1796C40.9893 14.2744 41.547 14.7762 42.4552 13.541C43.1108 12.6495 44.4473 11.3574 43.4066 10.3168C40.8778 7.78796 41.0237 15.7966 41.7681 17.0824C43.4527 19.9922 50.1893 15.6568 45.0981 16.9767C43.6696 17.347 41.8004 14.7603 41.5038 13.541C41.1198 11.9625 42.7856 7.14778 44.9395 9.49751C46.3885 11.0783 45.0913 12.0817 43.7766 13.2503C43.3069 13.6679 41.536 14.2282 42.1645 14.2282C42.9175 14.2282 43.2938 13.7596 43.8031 13.2503C44.2635 12.7899 46.7909 10.2572 45.4152 9.47109C44.6907 9.05711 45.8526 10.4875 45.653 11.5853C45.652 11.591 39.4093 17.5581 43.4859 17.5581C43.8672 17.5581 42.8185 17.1398 42.6138 16.8181C42.316 16.3502 42.022 15.4899 41.9002 14.9417C41.5863 13.5291 41.8738 16.432 41.8738 15.6553" stroke="white" stroke-linecap="round"/>
<path d="M48.0578 11.8497C49.5358 10.1869 49.7227 15.1673 50.2249 14.5982C50.7567 13.9955 49.8836 10.5935 49.1149 10.264C48.3486 9.93557 49.5138 11.8866 49.802 12.669C50.3391 14.1268 50.963 15.5344 51.7577 16.871C51.8594 17.0421 53.7037 19.7046 53.0791 18.1925C52.0909 15.7999 50.625 13.488 49.2206 11.3211C47.9501 9.36087 50.3029 13.9273 50.4363 14.2282C50.5669 14.5226 53.1121 19.4198 53.2906 18.4832C53.8887 15.3428 54.0363 12.1115 54.6648 8.96901C55.0643 6.97141 54.3996 13.044 54.0305 15.0475C53.2186 19.4555 54.1395 11.7138 54.242 10.7661C54.8381 5.25152 54.1945 15.0097 54.0305 16.1575C53.8548 17.3879 53.9909 18.6051 52.6299 17.8489C52.1365 17.5748 52.4882 18.3462 52.8148 18.5096" stroke="white" stroke-linecap="round"/>
<path d="M61.8538 14.2282C61.7554 13.3429 61.0465 12.2059 60.2152 11.8496C57.2171 10.5647 57.0274 15.9038 57.1231 17.5317C57.3565 21.4986 61.8809 20.7559 62.9373 17.5053C63.9145 14.4987 60.5372 8.59132 59.4753 13.4882C59.1849 14.8272 58.3757 16.8795 58.8674 18.2453C59.4482 19.8585 61.2267 19.7675 62.1181 18.4567C63.2321 16.8184 63.5786 14.2165 62.7259 12.4046C61.8725 10.5912 60.0452 10.3995 59.0524 12.2196C57.4338 15.1871 59.0337 22.085 62.2238 17.0824C63.0181 15.8368 63.9332 13.8677 63.2016 12.4046C62.3115 10.6244 60.3581 11.1655 59.2903 12.4311C58.2521 13.6615 56.7981 16.5722 57.731 18.1924C59.3912 21.0759 62.9269 14.5388 63.3073 13.4882C63.8834 11.897 63.3655 10.2702 64.0738 12.5368C64.6509 14.3835 65.5381 16.0998 66.3994 17.8224C66.7401 18.5037 64.6644 12.9994 64.0738 11.9025C64.0292 11.8198 63.1475 9.4762 63.3338 10.6868C63.7842 13.6145 64.2257 17.0865 65.633 19.7252C67.4173 23.0707 66.6045 18.7148 65.8445 17.2939C64.9222 15.5697 63.9339 13.8339 62.9109 12.1668C61.7431 10.2636 63.8864 15.1319 63.968 15.2853C64.5024 16.2893 65.9469 19.9093 67.2451 20.2802C67.8104 20.4417 66.9202 19.1442 66.6637 18.6153C65.9653 17.1747 65.2649 15.7386 64.6023 14.281C64.0804 13.1328 64.1147 14.4634 63.7566 15.1796" stroke="white" stroke-linecap="round"/>
<path d="M76.4552 19.5526C76.4552 17.2217 76.0126 14.9723 75.7417 12.6549C75.6406 11.79 73.8665 5.54694 76.006 7.68636C78.2177 9.89813 79.5798 12.9154 81.4238 15.4298C82.4422 16.8186 83.3654 12.169 83.5644 11.4392C84.0364 9.70872 84.8212 7.52806 85.018 5.7571C85.0751 5.24353 87.4674 12.0995 87.7665 13.157C88.4488 15.5687 89.5977 19.5384 87.7929 14.2934C86.7877 11.3718 86.1726 8.19042 85.018 5.33425C84.1093 3.08635 82.3517 12.2301 82.2695 12.9456C81.9278 15.9179 81.1156 14.0426 80.2345 12.3906C79.2602 10.5638 77.6883 7.15277 75.7945 6.10067C75.4678 5.91913 76.6178 11.9026 76.6667 12.2584C76.9674 14.4492 76.931 16.6599 76.931 18.8655C76.931 20.0187 76.931 19.6792 76.931 18.7598C76.931 15.9232 76.931 13.0865 76.931 10.2499C76.931 10.0423 77.0292 6.92572 76.561 7.28994C75.193 8.3539 75.2104 12.0525 75.9795 10.5142" stroke="white" stroke-linecap="round"/>
<path d="M96.4351 13.3684C96.4351 11.3017 94.0565 8.94614 91.8102 9.6949C88.9814 10.6378 90.0253 16.6137 92.048 17.9141C94.1274 19.2508 96.7812 13.0353 95.4309 11.492C91.8447 7.39352 88.1726 16.4524 92.7088 17.1741C96.0997 17.7135 97.1547 12.7695 97.3073 10.3292C97.4283 8.39333 96.9726 12.3327 97.0166 12.8927C97.135 14.4027 96.8513 17.6018 97.8623 18.8655C98.4522 19.6029 97.4118 14.9364 97.3601 14.7427C96.8791 12.939 96.023 7.66219 95.5101 9.45705C94.9161 11.5363 95.624 15.9014 96.5408 17.8084C97.8751 20.5835 98.3561 13.222 96.4351 11.9413" stroke="white" stroke-linecap="round"/>
<path d="M100.717 9.56272C100.053 10.3917 100.361 11.2734 100.532 12.2584C100.743 13.4778 101.978 21.2789 101.404 16.2755C101.343 15.7495 100.537 9.27349 100.822 12.9455C101.001 15.2473 102.47 22.0319 102.038 19.764C101.629 17.6163 101.033 15.4881 100.769 13.3155C100.434 10.5472 101.383 16.1788 101.43 16.3812C102.319 20.2323 101.928 19.0754 102.487 16.0641C102.83 14.2158 103.603 9.71988 105.923 9.13987C106.127 9.08878 107.121 8.91529 106.319 9.08701C103.929 9.5992 102.383 13.5199 101.615 15.4826C100.726 17.7536 101.623 15.8962 101.985 14.9541C102.898 12.5814 104.737 10.8509 106.954 9.66843C107.352 9.45596 105.355 11.1035 105.156 11.307C103.653 12.8502 102.353 14.431 101.668 16.4869C101.423 17.2224 102.067 14.826 101.668 14.1612C101.224 13.4216 101.192 14.5535 101.192 14.7955" stroke="white" stroke-linecap="round"/>
<path d="M111.182 15.2712C110.653 15.2051 110.571 14.68 110.23 14.3198C108.899 12.9105 107.293 15.9761 106.795 17.0155C105.82 19.0506 108.019 20.2466 109.649 19.024C111.382 17.7242 112.158 13.8478 109.279 13.4212C107.044 13.0902 105.658 15.0714 105.579 17.0683C105.465 19.956 109.455 20.0971 110.653 17.914C111.318 16.7028 111.135 12.8476 108.962 13.2098C106.986 13.539 105.053 17.2201 107.323 18.4426C109.554 19.6436 111.391 16.8663 111.446 15.0069C111.464 14.411 110.651 12.0518 110.706 13.897C110.815 17.5447 112.104 20.9446 112.873 24.4682C113.132 25.6517 113.486 27.8873 111.922 28.3796C110.708 28.7618 107.809 28.2754 107.006 27.1639C106.689 26.7244 107.543 26.5142 107.746 26.7939C108.387 27.6748 107.261 28.8647 108.539 29.9124C110.487 31.5097 112.08 29.8288 112.08 27.7982C112.08 24.8014 111.355 21.7249 110.97 18.7597C110.503 15.1541 110.776 16.7727 111.208 19.4733C111.578 21.7856 113.745 29.2277 109.543 29.9917C107.672 30.3319 107.613 29.1863 107.138 27.666C106.43 25.3996 110.091 23.1511 111.34 21.5611C112.625 19.9265 108.773 24.9274 108.116 26.8996C107.856 27.6788 107.852 29.8381 107.852 27.8775C107.852 26.519 108.574 25.0792 109.041 23.834C109.171 23.4878 109.601 21.6912 109.993 21.5347C110.341 21.3952 110.37 22.2389 110.706 22.4068" stroke="white" stroke-linecap="round"/>
<path d="M118.793 14.7956C118.793 13.267 117.528 11.5618 115.701 11.9678C112.875 12.5958 114.424 17.6252 115.225 19.0505C117.661 23.3809 121.262 11.6337 116.864 12.0735C114.184 12.3414 113.852 15.8868 116.256 16.9098C119.487 18.2849 119.765 13.6952 118.582 11.8356C118.391 11.5357 118.552 16.2027 118.793 16.9627C119.07 17.8355 121.223 21.404 120.59 18.4955C120.317 17.2381 119.552 16.0905 118.899 15.007C118.524 14.3856 117.842 12.3786 117.842 13.1042C117.842 14.0842 119.373 18.7408 120.115 19.2355C121.44 20.1194 119.202 16.179 118.635 14.6899C117.661 12.1342 117.79 15.0057 117.525 16.0113C117.245 17.0693 116.387 19.1944 115.199 17.5441C115.181 17.5197 114.326 15.5312 114.142 16.0641C113.839 16.9376 114.874 22.4274 115.939 21.1383C116.449 20.5208 115.959 19.0871 116.89 19.5526" stroke="white" stroke-linecap="round"/>
<path d="M123.075 12.8926C123.075 14.8146 122.905 17.2118 123.815 18.9711C124.797 20.8705 124.032 14.5894 123.313 12.5755C122.502 10.3058 124.272 17.2993 124.766 19.6583C125.386 22.6203 124.597 17.0247 124.475 16.4869C124.324 15.8192 123.237 12.3512 123.365 12.7869C123.995 14.929 124.877 16.9724 124.977 19.2354C125.044 20.7249 125.185 17.8707 125.268 17.5176C125.631 15.9874 125.989 12.2661 127.726 11.5712C128.39 11.3057 128.25 11.8144 127.832 12.0469C126.24 12.9314 125.639 14.4407 125.268 16.1697C124.779 18.4534 124.726 18.6488 125.083 16.2226C125.29 14.8131 126.049 12.5464 127.567 11.9941C129.11 11.4331 128.594 12.7829 126.775 12.3112C125.065 11.8679 124.502 13.3881 124.502 14.7955" stroke="white" stroke-linecap="round"/>
<path d="M131.637 12.417C130.41 12.7237 131.157 18.3914 131.399 19.2619C131.939 21.2072 131.67 15.2285 131.637 13.2099C131.571 9.11715 131.576 21.1923 131.637 18.8655C131.695 16.6639 131.637 10.0561 131.637 12.2585C131.637 14.4241 131.588 16.5949 131.637 18.7598C131.685 20.8804 132.457 11.7278 131.161 14.3199" stroke="white" stroke-linecap="round"/>
<path d="M130.686 5.75714C130.686 6.29957 130.305 9.11268 131.373 7.63354C131.665 7.22882 131.855 6.18585 131.162 6.91998C130.849 7.25087 130.457 8.68112 131.4 8.24139C132.118 7.9062 132.164 5.99876 131.4 6.33856C130.987 6.52183 130.383 8.07847 131.003 8.29425C131.725 8.54526 132.431 7.13172 131.637 6.81427C131.094 6.5967 131.3 7.15229 131.743 7.28998C133.379 7.79758 134.772 7.47931 136.395 7.18426" stroke="white" stroke-linecap="round"/>
<path d="M137.822 1C137.822 2.83231 137.815 4.6648 137.822 6.49707C137.827 7.89265 136.823 18.4599 138.509 19.1826C138.726 19.2755 138.418 14.0965 138.403 13.8441C138.204 10.3137 138.017 6.77845 137.848 3.2464C137.78 1.80764 137.934 2.56932 138.06 3.2464C138.421 5.19733 138.298 7.21908 138.298 9.19274C138.298 11.7602 138.094 14.4507 138.562 16.9891C138.842 18.5071 139.229 18.3687 139.249 16.9626C139.316 12.2753 139.706 7.18886 138.562 2.61212C137.754 -0.620577 138.298 5.23079 138.298 6.04779C138.298 8.4488 137.108 14.7732 138.773 16.7512C139.253 17.321 139.189 14.2316 139.143 14.0555C138.853 12.927 135.573 11.5184 136.738 11.5184C138.187 11.5184 139.76 11.9413 141.284 11.9413C143.09 11.9413 137.672 11.9413 135.866 11.9413C133.112 11.9413 138.78 12.3954 139.513 12.417C139.855 12.427 136.101 11.6171 135.1 11.492C133.289 11.2656 138.791 11.299 140.57 11.7034C142.169 12.0668 139.846 11.6979 139.143 11.0956C138.328 10.3969 137.346 9.83241 137.346 10.9899" stroke="white" stroke-linecap="round"/>
<path d="M148.287 13.3685C148.221 12.7723 147.811 12.2484 147.23 12.0471C145.332 11.39 144.786 15.4645 144.746 16.5927C144.627 19.8903 148.34 17.5749 148.921 15.8527C149.945 12.8198 146.454 10.9027 144.138 12.8135C142.402 14.2459 142.489 18.4669 145.459 18.3106C148.776 18.136 149.238 13.3923 147.23 11.5185C144.666 9.1254 142.922 14.4727 143.9 16.3285C146.269 20.8238 150.703 10.7366 145.459 12.0999C143.247 12.6751 142.068 16.9147 144.984 17.227C147.286 17.4737 149.019 13.6084 149.106 11.8092C149.146 11.0043 147.789 8.62578 147.891 10.3557C148.055 13.1439 150.401 21.2177 150.084 18.4427C149.953 17.2951 148.91 8.91187 147.917 8.76998C146.625 8.58536 148.456 11.3285 148.842 12.5756C149.469 14.6011 151.305 20.6663 150.956 18.5748C150.78 17.5188 147.811 8.78378 147.811 13.3685" stroke="white" stroke-linecap="round"/>
</svg>
