<svg width="322" height="65" viewBox="0 0 322 65" fill="none" xmlns="http://www.w3.org/2000/svg">
<path d="M1.93682 14.0163C2.1348 23.5193 3.10909 33.122 3.96945 42.586C4.52834 48.7338 3.96945 30.2397 3.96945 24.0665C3.96945 22.6151 3.96945 9.62269 3.96945 14.5809C3.96945 23.7466 3.96945 32.9122 3.96945 42.0778C3.96945 47.3948 3.17065 31.4702 3.0096 26.1556C2.8578 21.1463 3.15184 8.5508 2.16267 20.7917C1.96273 23.266 0.075723 40.8619 2.16267 42.0213C3.19846 42.5968 8.68331 40.6381 9.9544 40.4969C17.8741 39.6169 -1.00535 41.3104 3.96945 41.4567C6.91888 41.5435 9.94144 41.5796 12.8904 41.4567C14.3641 41.3953 7.80218 40.4766 7.13131 40.3275C3.47802 39.5157 4.79035 34.5988 2.95314 32.7616C2.64848 32.457 1.5922 32.3791 1.14636 30.2773C0.44137 26.9538 2.45879 29.1481 3.46129 29.1481C4.88645 29.1481 6.75457 28.2447 8.54285 28.2447C14.7476 28.2447 8.32296 25.5919 6.22792 27.4542C5.29161 28.2865 17.0495 28.2447 13.5679 28.2447C7.92362 28.2447 6.05905 28.9802 4.1953 23.389C3.58398 21.555 3.00801 15.0326 5.55038 15.0326C7.28345 15.0326 13.8275 14.0608 13.1163 14.0163C10.4285 13.8483 -0.239812 13 8.0347 13C9.89146 13 15.3682 14.0163 13.5115 14.0163C11.6452 14.0163 12.0999 15.6296 12.0999 17.0652" stroke="white" stroke-linecap="round"/>
<path d="M21.2473 13C21.2473 21.4963 23.2799 46.9041 23.2799 38.4078C23.2799 31.1054 23.2799 9.19824 23.2799 16.5006C23.2799 25.5032 24.2962 52.492 24.2962 43.4894C24.2962 33.8245 24.5504 24.1278 24.2962 14.468C24.189 10.3917 23.1144 17.7779 23.0541 18.3074C22.3662 24.345 21.2473 30.0461 21.2473 36.1493C21.2473 39.7814 21.3135 38.9257 23.0541 40.6663C23.3575 40.9697 24.1878 43.9412 24.2962 41.2309C24.351 39.8606 24.3685 38.406 23.0541 37.6173C21.5966 36.7428 21.4118 40.7429 21.0214 41.2309C19.031 43.7189 22.2636 43.5062 22.2636 40.4404" stroke="white" stroke-linecap="round"/>
<path d="M33.4431 35.3587C33.4431 21.9854 34.3068 50.4859 35.9839 38.7464C36.2323 37.0076 36.492 24.0731 36.492 31.6887C36.492 35.5845 36.492 39.4804 36.492 43.3763C36.492 45.6347 36.492 38.8593 36.492 36.6009C36.492 35.6104 35.582 29.1486 35.4757 32.7615C35.4361 34.1082 36.3791 41.823 36.3791 39.311C36.3791 34.1364 30.9368 34.4113 33.4431 39.4239" stroke="white" stroke-linecap="round"/>
<path d="M34.4596 22.1469C36.1209 21.9392 37.8763 17.0328 34.0079 18.1381C30.6729 19.0909 36.4922 25.603 36.4922 20.1142C36.4922 15.7406 30.1933 23.1514 34.9677 22.0904C36.0703 21.8454 37.3956 19.7019 37.3956 18.5898C37.3956 15.8389 32.3634 17.8366 33.6691 19.8884C36.0966 23.703 39.7156 17.0653 35.984 17.0653C34.2987 17.0653 34.7608 18.985 33.9514 18.985C32.7169 18.985 35.3236 15.4933 35.4759 18.0816C35.6408 20.8848 35.4759 24.7655 35.4759 19.6061C35.4759 16.5562 33.7884 20.1047 32.4269 22.1469" stroke="white" stroke-linecap="round"/>
<path d="M56.818 21.1305C53.3271 20.6941 51.9332 17.3201 47.897 21.3563C45.7076 23.5457 46.4218 28.0282 49.1956 29.261C53.6765 31.2525 61.0501 26.8648 63.4805 32.5357C66.3607 39.2562 60.7965 42.8012 55.2935 43.9975C53.4546 44.3972 51.1025 44.8729 49.1956 44.4492C48.1819 44.2239 46.3474 41.6476 47.2195 42.0213C52.3613 44.225 55.6367 47.866 61.4478 43.7152C72.0404 36.1491 56.6206 32.3099 50.7201 32.3099C48.1261 32.3099 47.8472 28.3443 48.9133 26.212C50.3815 23.2756 59.4083 25.0129 54.2207 22.6549C52.6425 21.9376 43.6774 23.1388 46.8807 25.9862C47.4849 26.5232 49.9825 24.2535 50.9459 24.1794C54.031 23.9421 53.3222 23.1631 50.7201 23.1631C44.5344 23.1631 44.1862 30.6649 50.3249 31.8017C53.1124 32.3179 60.9608 30.9195 63.1417 33.1004C65.0218 34.9805 63.217 40.8168 61.4478 37.2785C60.8129 36.0087 61.571 33.3858 60.3751 34.3425C58.7017 35.6812 60.7515 36.3751 61.8995 36.3751" stroke="white" stroke-linecap="round"/>
<path d="M69.0137 34.3426C72.8175 34.3426 79.7023 28.2056 75.9021 24.4054C72.0113 20.5146 70.4519 33.3563 73.1354 36.3753C75.253 38.7576 78.0873 40.4207 81.2095 38.8596C82.5609 38.1839 85.1874 36.0086 82.2258 36.4317C75.3444 37.4148 71.305 33.6796 71.0464 26.438C70.6389 15.029 82.0348 24.6443 76.9184 28.2448C74.959 29.6236 71.1075 32.8024 75.3375 29.8257C77.5494 28.2691 80.3643 24.4485 78.6122 21.6952C77.1598 19.4129 75.174 19.098 72.6837 19.098C70.2876 19.098 77.5406 21.02 78.6122 23.1632C79.9949 25.9285 77.1442 32.7618 77.1442 29.2611" stroke="white" stroke-linecap="round"/>
<path d="M84.2584 31.2936C86.434 29.3597 87.6254 30.4319 89.5658 27.793C90.9664 25.8882 93.8216 23.1278 91.5984 20.9046C86.1958 15.502 86.5074 32.6119 88.0978 35.3588C91.6968 41.5753 106.089 32.313 95.212 35.133C92.1602 35.9242 88.1668 30.3978 87.5332 27.793C86.7128 24.4205 90.2715 14.1343 94.8732 19.1543C97.969 22.5315 95.1976 24.6752 92.3889 27.1719C91.3853 28.064 87.602 29.261 88.9447 29.261C90.5534 29.261 91.3573 28.2599 92.4453 27.1719C93.4291 26.1881 98.8286 20.7773 95.8895 19.0979C94.3418 18.2134 96.8241 21.2694 96.3977 23.6148C96.3955 23.6268 83.0585 36.3752 91.7678 36.3752C92.5823 36.3752 90.3419 35.4814 89.9046 34.7942C89.2684 33.7945 88.6403 31.9565 88.3801 30.7854C87.7095 27.7676 88.3236 33.9692 88.3236 32.3099" stroke="white" stroke-linecap="round"/>
<path d="M101.535 24.1795C104.693 20.6271 105.092 31.2673 106.165 30.0515C107.301 28.7637 105.436 21.4956 103.794 20.7918C102.157 20.0901 104.646 24.2584 105.262 25.9298C106.409 29.0443 107.742 32.0516 109.44 34.9072C109.657 35.2725 113.597 40.961 112.263 37.7303C110.152 32.6187 107.02 27.6795 104.02 23.0502C101.305 18.8623 106.332 28.6181 106.617 29.261C106.896 29.8899 112.333 40.3525 112.715 38.3514C113.993 31.6422 114.308 24.7388 115.651 18.0251C116.504 13.7574 115.084 26.7311 114.296 31.0113C112.561 40.4286 114.528 23.8892 114.747 21.8645C116.021 10.083 114.646 30.9306 114.296 33.3827C113.92 36.0114 114.211 38.6118 111.303 36.9963C110.249 36.4107 111 38.0588 111.698 38.4078" stroke="white" stroke-linecap="round"/>
<path d="M131.009 29.2609C130.799 27.3696 129.285 24.9405 127.509 24.1794C121.103 21.4342 120.698 32.8408 120.903 36.3186C121.401 44.7935 131.067 43.2068 133.324 36.2622C135.412 29.839 128.197 17.2182 125.928 27.68C125.307 30.5407 123.579 34.9254 124.629 37.8431C125.87 41.2897 129.67 41.0953 131.574 38.2948C133.954 34.7948 134.694 29.2359 132.873 25.3651C131.049 21.4908 127.145 21.0813 125.024 24.9698C121.566 31.3095 124.984 46.0465 131.8 35.3588C133.497 32.6977 135.452 28.4907 133.889 25.3651C131.987 21.5616 127.814 22.7177 125.532 25.4215C123.315 28.0502 120.208 34.2687 122.201 37.7302C125.748 43.8905 133.302 29.9246 134.115 27.68C135.345 24.2806 134.239 20.805 135.752 25.6474C136.985 29.5928 138.881 33.2594 140.721 36.9397C141.448 38.3952 137.014 26.6357 135.752 24.2923C135.657 24.1155 133.773 19.1087 134.171 21.695C135.133 27.9499 136.077 35.3674 139.083 41.005C142.895 48.1523 141.159 38.8463 139.535 35.8105C137.565 32.127 135.453 28.4185 133.268 24.8569C130.773 20.7909 135.352 31.1917 135.526 31.5194C136.668 33.6643 139.754 41.3982 142.527 42.1907C143.735 42.5357 141.833 39.7637 141.285 38.6336C139.793 35.556 138.297 32.4879 136.881 29.3738C135.766 26.9208 135.84 29.7634 135.075 31.2935" stroke="white" stroke-linecap="round"/>
<path d="M162.204 40.6362C162.204 35.6563 161.258 30.8507 160.68 25.8996C160.464 24.0518 156.674 10.7141 161.244 15.2848C165.97 20.0101 168.88 26.4562 172.819 31.8281C174.995 34.7951 176.967 24.8616 177.392 23.3024C178.401 19.6054 180.077 14.9466 180.498 11.1631C180.62 10.0659 185.731 24.7131 186.37 26.9724C187.827 32.1249 190.282 40.6057 186.426 29.4003C184.279 23.1584 182.965 16.3617 180.498 10.2597C178.556 5.45727 174.801 24.9923 174.626 26.5207C173.896 32.8708 172.161 28.8645 170.278 25.335C168.197 21.4322 164.839 14.1449 160.793 11.8971C160.094 11.5093 162.551 24.2925 162.656 25.0527C163.298 29.7332 163.22 34.4561 163.22 39.1682C163.22 41.6318 163.22 40.9065 163.22 38.9423C163.22 32.8821 163.22 26.8219 163.22 20.7616C163.22 20.318 163.43 13.6598 162.43 14.4379C159.507 16.711 159.545 24.6128 161.188 21.3262" stroke="white" stroke-linecap="round"/>
<path d="M204.89 27.4241C204.89 23.0087 199.808 17.9762 195.009 19.5759C188.965 21.5904 191.195 34.3574 195.517 37.1355C199.959 39.9913 205.629 26.7124 202.744 23.4153C195.082 14.6592 187.237 34.0128 196.929 35.5546C204.173 36.7071 206.427 26.1445 206.753 20.931C207.011 16.7952 206.038 25.2114 206.132 26.4078C206.385 29.6338 205.779 36.4683 207.939 39.1681C209.199 40.7435 206.976 30.7739 206.866 30.3601C205.838 26.5067 204.009 15.2332 202.913 19.0677C201.644 23.5099 203.157 32.8355 205.115 36.9097C207.966 42.8386 208.994 27.1112 204.89 24.3751" stroke="white" stroke-linecap="round"/>
<path d="M214.036 19.2935C212.62 21.0646 213.277 22.9482 213.641 25.0526C214.092 27.6578 216.731 44.3242 215.504 33.6348C215.375 32.5112 213.654 18.6756 214.262 26.5206C214.644 31.4381 217.782 45.9329 216.859 41.0878C215.985 36.4994 214.712 31.9526 214.149 27.3111C213.432 21.3969 215.461 33.4282 215.561 33.8607C217.46 42.0883 216.625 39.6165 217.819 33.1831C218.553 29.2345 220.203 19.6293 225.159 18.3901C225.596 18.281 227.718 17.9103 226.006 18.2772C220.9 19.3715 217.597 27.7478 215.956 31.941C214.058 36.7926 215.972 32.8246 216.747 30.8117C218.696 25.7426 222.625 22.0456 227.361 19.5194C228.212 19.0654 223.945 22.5853 223.522 23.02C220.311 26.3169 217.533 29.6942 216.069 34.0865C215.545 35.6577 216.921 30.5381 216.069 29.1179C215.121 27.5377 215.053 29.9559 215.053 30.473" stroke="white" stroke-linecap="round"/>
<path d="M236.395 31.4893C235.265 31.3481 235.089 30.2261 234.362 29.4566C231.518 26.4457 228.086 32.9951 227.022 35.2157C224.939 39.5635 229.637 42.1188 233.12 39.5068C236.822 36.7299 238.48 28.4481 232.329 27.5369C227.555 26.8296 224.593 31.0624 224.425 35.3287C224.181 41.4978 232.706 41.7994 235.265 37.1354C236.685 34.5478 236.295 26.3114 231.652 27.0853C227.432 27.7886 223.301 35.6528 228.151 38.2647C232.917 40.8306 236.842 34.897 236.959 30.9247C236.997 29.6515 235.261 24.6111 235.378 28.5533C235.611 36.3464 238.364 43.61 240.008 51.138C240.56 53.6663 241.316 58.4426 237.976 59.4943C235.382 60.3108 229.189 59.2716 227.474 56.8971C226.796 55.9581 228.62 55.5089 229.055 56.1066C230.423 57.9885 228.019 60.5306 230.748 62.7691C234.91 66.1815 238.314 62.5904 238.314 58.2521C238.314 51.8498 236.764 45.277 235.943 38.9422C234.944 31.239 235.528 34.697 236.451 40.4667C237.241 45.4067 241.872 61.3062 232.894 62.9385C228.897 63.6652 228.771 61.2178 227.756 57.9698C226.243 53.1277 234.064 48.324 236.733 44.9272C239.477 41.4349 231.25 52.119 229.845 56.3324C229.29 57.9971 229.28 62.6102 229.28 58.4215C229.28 55.5192 230.824 52.4431 231.821 49.7829C232.099 49.0433 233.018 45.2051 233.854 44.8707C234.599 44.5727 234.661 46.3751 235.378 46.7339" stroke="white" stroke-linecap="round"/>
<path d="M252.656 30.4731C252.656 27.2074 249.953 23.5644 246.05 24.4317C240.012 25.7735 243.321 36.5184 245.033 39.5635C250.237 48.815 257.93 23.718 248.534 24.6576C242.809 25.2301 242.099 32.8045 247.235 34.9901C254.139 37.9277 254.732 28.1223 252.204 24.1494C251.796 23.5087 252.141 33.4794 252.656 35.103C253.247 36.9676 257.846 44.5916 256.495 38.3778C255.911 35.6915 254.277 33.2397 252.882 30.9248C252.081 29.5973 250.623 25.3094 250.623 26.8596C250.623 28.9534 253.893 38.9018 255.479 39.9587C258.311 41.8471 253.529 33.4287 252.317 30.2473C250.237 24.7873 250.513 30.9221 249.946 33.0704C249.349 35.3307 247.516 39.871 244.977 36.3452C244.939 36.2929 243.113 32.0448 242.719 33.1833C242.073 35.0494 244.283 46.778 246.558 44.024C247.648 42.7046 246.601 39.6416 248.591 40.6363" stroke="white" stroke-linecap="round"/>
<path d="M261.803 26.4078C261.803 30.5139 261.44 35.6354 263.384 39.394C265.483 43.4519 263.848 30.0327 262.311 25.7302C260.579 20.8812 264.361 35.8221 265.416 40.862C266.741 47.1901 265.055 35.2356 264.795 34.0866C264.472 32.6602 262.15 25.251 262.424 26.1819C263.77 30.7584 265.653 35.1239 265.868 39.9586C266.009 43.1407 266.31 37.043 266.489 36.2886C267.263 33.0196 268.029 25.0693 271.74 23.5847C273.158 23.0173 272.86 24.1041 271.966 24.601C268.565 26.4905 267.281 29.715 266.489 33.409C265.444 38.2879 265.332 38.7054 266.094 33.522C266.537 30.5106 268.156 25.668 271.401 24.4881C274.697 23.2895 273.594 26.1733 269.707 25.1656C266.054 24.2184 264.852 27.4662 264.852 30.473" stroke="white" stroke-linecap="round"/>
<path d="M280.095 25.3916C277.475 26.0467 279.071 38.1554 279.587 40.0152C280.742 44.1711 280.165 31.3982 280.095 27.0855C279.954 18.3417 279.965 44.1394 280.095 39.1683C280.219 34.4648 280.095 20.3477 280.095 25.0529C280.095 29.6795 279.99 34.3174 280.095 38.9425C280.198 43.4729 281.848 23.9192 279.079 29.4569" stroke="white" stroke-linecap="round"/>
<path d="M278.064 11.1633C278.064 12.3221 277.25 18.3321 279.532 15.1721C280.156 14.3074 280.562 12.0792 279.08 13.6476C278.413 14.3545 277.575 17.4101 279.588 16.4707C281.123 15.7546 281.222 11.6795 279.588 12.4054C278.707 12.797 277.416 16.1226 278.741 16.5836C280.283 17.1199 281.792 14.1 280.097 13.4217C278.935 12.9569 279.375 14.1439 280.322 14.4381C283.817 15.5225 286.793 14.8425 290.26 14.2122" stroke="white" stroke-linecap="round"/>
<path d="M293.309 1C293.309 4.91459 293.295 8.82954 293.309 12.744C293.32 15.7256 291.175 38.3018 294.777 39.8457C295.24 40.0442 294.582 28.9796 294.551 28.4404C294.124 20.898 293.725 13.3452 293.366 5.79925C293.219 2.72546 293.55 4.35272 293.817 5.79925C294.589 9.96726 294.326 14.2866 294.326 18.5031C294.326 23.9884 293.891 29.7363 294.89 35.1594C295.488 38.4026 296.315 38.1068 296.358 35.1029C296.501 25.0888 297.335 14.222 294.89 4.44417C293.164 -2.46223 294.326 10.0387 294.326 11.7842C294.326 16.9138 291.783 30.4254 295.342 34.6512C296.367 35.8685 296.229 29.2684 296.132 28.8921C295.512 26.481 288.505 23.4718 290.994 23.4718C294.089 23.4718 297.449 24.3752 300.706 24.3752C304.564 24.3752 292.989 24.3752 289.131 24.3752C283.247 24.3752 295.356 25.3454 296.923 25.3915C297.653 25.413 289.632 23.6826 287.494 23.4153C283.625 22.9317 295.379 23.003 299.181 23.867C302.597 24.6434 297.634 23.8551 296.132 22.5684C294.391 21.0757 292.293 19.8697 292.293 22.3425" stroke="white" stroke-linecap="round"/>
<path d="M315.667 27.4242C315.526 26.1504 314.651 25.0312 313.409 24.6012C309.353 23.1972 308.188 31.9022 308.101 34.3126C307.847 41.3576 315.78 36.4109 317.022 32.7316C319.21 26.2519 311.751 22.1564 306.803 26.2385C303.093 29.2987 303.279 38.3166 309.626 37.9826C316.713 37.6096 317.698 27.4752 313.409 23.4719C307.931 18.3592 304.206 29.7832 306.295 33.748C311.355 43.352 320.828 21.8015 309.626 24.7141C304.9 25.9429 302.382 35.0004 308.609 35.6677C313.528 36.1946 317.23 27.9368 317.418 24.093C317.501 22.3734 314.603 17.2918 314.82 20.9876C315.171 26.9445 320.184 44.1935 319.507 38.2649C319.226 35.8132 316.999 17.903 314.877 17.5999C312.116 17.2055 316.028 23.066 316.853 25.7304C318.192 30.0577 322.115 43.0154 321.37 38.5472C320.994 36.2911 314.651 17.6294 314.651 27.4242" stroke="white" stroke-linecap="round"/>
</svg>
